<?xml version="1.0" encoding="UTF-8" standalone="no"?>
<!-- Created with Inkscape (http://www.inkscape.org/) -->

<svg
   width="598.21234"
   height="503.31445"
   viewBox="0 0 158.27702 133.16862"
   version="1.1"
   id="svg5"
   xml:space="preserve"
   inkscape:version="1.2.1 (9c6d41e410, 2022-07-14)"
   sodipodi:docname="graphic.svg"
   xmlns:inkscape="http://www.inkscape.org/namespaces/inkscape"
   xmlns:sodipodi="http://sodipodi.sourceforge.net/DTD/sodipodi-0.dtd"
   xmlns="http://www.w3.org/2000/svg"
   xmlns:svg="http://www.w3.org/2000/svg"><sodipodi:namedview
     id="namedview7"
     pagecolor="#ffffff"
     bordercolor="#000000"
     borderopacity="0.25"
     inkscape:showpageshadow="2"
     inkscape:pageopacity="0.0"
     inkscape:pagecheckerboard="0"
     inkscape:deskcolor="#d1d1d1"
     inkscape:document-units="px"
     showgrid="false"
     showborder="false"
     inkscape:zoom="0.70710678"
     inkscape:cx="461.03362"
     inkscape:cy="287.08535"
     inkscape:window-width="1366"
     inkscape:window-height="693"
     inkscape:window-x="0"
     inkscape:window-y="0"
     inkscape:window-maximized="1"
     inkscape:current-layer="svg5" /><defs
     id="defs2"><rect
       x="275.77164"
       y="230.51682"
       width="316.78384"
       height="67.882248"
       id="rect597" /><rect
       x="265.87216"
       y="227.68839"
       width="325.26913"
       height="72.124893"
       id="rect591" /><rect
       x="722.66315"
       y="268.70059"
       width="312.5412"
       height="214.96046"
       id="rect561" /></defs><g
     id="g505"><g
       inkscape:groupmode="layer"
       id="layer2"
       inkscape:label="hair"
       style="display:inline"
       transform="translate(-35.706262,-74.10791)"><path
         style="opacity:1;fill:#000000;fill-opacity:0.990291;stroke:#000000;stroke-width:0.264583;stroke-opacity:0.873786"
         d="m 75.795459,110.26502 c 3.944745,-6.57458 14.182298,-1.69061 14.182298,-1.69061 -1.596683,-8.73479 7.88949,-9.204403 7.88949,-9.204403 C 93.575398,75.999186 76.828605,74.292698 76.828605,74.292698 39.957651,72.604219 38.991956,112.13143 41.231977,111.39208 c 0,0 26.063496,-3.89777 24.560736,-19.113222 l -0.516574,-5.306621 -1.549721,-4.649164 0.563535,-0.469613 0.422651,0.140884 0.516574,1.080109 c 0,0 2.441985,9.439211 2.113256,10.988933 0,0 -1.925411,8.453024 -3.7569,8.312144 0,0 7.13811,-2.676794 6.856342,1.92541 l 0.704419,4.32043 z"
         id="path2363"
         sodipodi:nodetypes="ccccccccccccc" /></g><g
       inkscape:groupmode="layer"
       id="layer4"
       inkscape:label="eyes"
       style="display:inline"
       transform="translate(-35.706262,-74.10791)"><path
         style="opacity:1;fill:#000000;fill-opacity:1;stroke:#000000;stroke-width:0.264583;stroke-opacity:0.873786"
         d="m 48.465059,127.48021 -0.09962,0.86337 0.514702,0.53131 0.664133,0.5147 0.547907,0.33207 0.929786,0.0498 1.046009,0.16603 0.514702,0.56451 0.132826,0.74715 0.564512,-0.16603 0.647531,-0.41509 0.614323,-0.0332 0.547909,-0.19924 0.398479,-0.34867 -0.06641,-0.58112 -0.29886,-0.76375 -0.614323,0.43169 -0.747149,-0.43169 -0.946388,-0.9962 -0.564512,0.61432 c 0,0 -0.09962,0.38188 -0.182637,0.4649 -0.08302,0.083 -1.046009,-0.0996 -1.046009,-0.0996 l -1.178835,-0.16604 -0.879975,-0.59771 z"
         id="path5835" /><path
         style="opacity:1;fill:#000000;fill-opacity:1;stroke:#000000;stroke-width:0.264583;stroke-opacity:0.873786"
         d="m 60.037566,127.18135 1.46109,-2.12522 1.162233,-1.26185 2.324462,-1.56072 2.590118,-0.83016 2.092018,-1.56071 1.859568,-1.32827 0.166034,0.9962 1.261851,-0.0332 0.365273,0.43169 -1.295058,1.02941 -2.756149,1.16223 -2.224844,1.16223 -0.896578,0.92978 0.332065,0.4981 0.763755,0.33207 2.125223,0.0332 2.457288,-1.4943 1.726745,-0.79696 1.46109,-0.63093 0.265655,-0.69734 0.365273,0.43169 c 0,0 -1.19544,2.29126 -1.295058,2.42408 -0.09962,0.13283 -2.058811,1.42789 -2.058811,1.42789 l -2.191636,0.86337 -1.826366,-0.33207 -1.793158,-0.23244 -0.132826,0.66413 -0.863372,0.76375 -1.095817,0.19924 h -0.730546 l -1.328264,-1.36147 -0.332068,-0.23245 c 0,0 0.564515,-0.0996 -0.298858,0.43169 -0.863372,0.53131 -1.660332,0.69734 -1.660332,0.69734 z"
         id="path5837" /></g><g
       inkscape:groupmode="layer"
       id="layer5"
       inkscape:label="nasal area"
       style="display:inline"
       transform="translate(-35.706262,-74.10791)"><path
         style="opacity:1;fill:#000000;fill-opacity:1;stroke:#000000;stroke-width:0.264583;stroke-opacity:0.873786"
         d="m 55.954329,127.94593 -0.02347,0.56353 2.723753,-1.4558 z"
         id="path5903" /><path
         style="opacity:1;fill:none;fill-opacity:1;stroke:#000000;stroke-width:0.264583;stroke-opacity:0.873786"
         d="m 56.588307,130.27051 0.610495,4.03867 0.657458,3.38121 0.751382,3.00552 0.79834,2.3011 0.939223,0.93922 1.502762,0.18785 h 1.080109 l 1.127069,-1.17403 0.04696,-0.6105"
         id="path5907" /><path
         style="opacity:1;fill:none;fill-opacity:1;stroke:#000000;stroke-width:0.264583;stroke-opacity:0.873786"
         d="m 67.07737,134.9517 c 0,0 4.051207,1.62712 2.590117,5.27985"
         id="path5916" /></g><g
       inkscape:groupmode="layer"
       id="layer3"
       inkscape:label="beard"
       style="display:inline"
       transform="translate(-35.706262,-74.10791)"><path
         id="path5920"
         style="display:inline;opacity:1;fill:#000000;fill-opacity:1;stroke:#000000;stroke-width:0.264583;stroke-opacity:0.873786"
         d="m 91.574255,117.30912 -1.314648,0.75137 v 1.22112 l 0.845426,2.62981 0.375688,4.69636 -0.188102,3.85041 -1.221114,2.44223 -4.038513,7.4197 0.751375,1.31516 1.315165,2.16008 -0.282153,0.75137 -1.127063,0.1881 -1.971973,-1.12706 -2.254643,-1.97249 -1.127063,-1.78438 -1.971972,0.18758 -2.53628,0.56379 -1.784387,0.37569 -1.596802,1.2206 -2.723348,0.93947 -0.469738,-1.03301 -1.315166,0.0935 -0.93896,1.31516 -1.127063,1.5968 -1.4087,0.0935 -1.409216,-1.12707 -0.657324,0.65733 -0.09405,2.06654 2.578137,2.0314 0.597896,1.39423 1.992643,0.33228 1.617473,3.56826 0.445967,0.70435 1.009758,1.17408 2.348177,1.47898 1.127063,0.79841 1.854667,1.99574 1.878438,0.68109 2.371949,-0.37568 0.844909,0.37568 2.418457,-0.39945 0.282154,-0.68058 0.985986,-0.39946 1.315165,0.28215 0.516248,1.05627 0.962732,0.70435 2.817915,-0.63356 2.958476,-1.45624 2.136821,-0.28163 0.563273,-0.39895 0.02377,-0.32866 -0.117822,-0.0708 -5.118551,-2.98173 -1.315165,-1.31516 -0.445968,-0.7276 v -1.12707 l -0.164331,-3.94498 0.422713,-0.56327 2.629814,-2.91197 1.26814,-1.36167 0.587044,-1.33842 0.657324,0.16433 2.488737,-2.55953 1.103809,-1.50275 0.09405,-0.70435 -0.892452,-1.54978 -1.573031,-3.0055 -1.667081,-4.90719 -0.728121,-1.66709 -1.056783,-1.99626 -0.07028,-1.22059 c -1.033146,-2.04281 0.305407,-2.25413 0.305407,-2.25413 l -1.221114,-2.91145 z m -12.907739,26.24284 -0.140043,0.60617 0.771012,-0.20723 1.959054,0.59738 0.498161,0.53124 0.564306,0.69763 0.232544,0.99632 0.09974,0.92966 0.332279,1.95905 -0.03359,1.39475 -1.626775,-0.13281 -0.53175,-0.29869 -0.763261,-0.56482 -0.797367,-0.59738 -1.460893,0.23203 -1.361674,0.66455 -1.826245,0.73019 -2.058789,0.43202 -0.664042,-0.33228 -1.195276,-0.0331 -0.697632,-0.23255 -1.062467,-0.7307 -0.199472,-1.22835 0.132809,-0.89659 0.629419,-0.31471 -0.230994,-0.18345 2.656686,-0.49816 2.689758,-1.56063 1.793172,-1.12913 1.527555,-0.59789 z m -9.130709,4.25659 0.463538,0.99012 0.432015,0.26562 0.962732,-0.0331 1.494482,-0.39842 0.312126,-0.21808 -0.610816,0.18501 h -2.058789 z" /><path
         style="opacity:1;fill:#000000;fill-opacity:1;stroke:#000000;stroke-width:0.264583;stroke-opacity:0.873786"
         d="m 74.697801,147.59537 0.614323,-0.41509 0.464891,-0.16603 0.879976,-0.54791 -0.979594,0.92979 -0.4981,0.0996 z"
         id="path6040"
         sodipodi:nodetypes="ccccccc" /><path
         style="display:inline;opacity:1;fill:#000000;fill-opacity:1;stroke:#000000;stroke-width:0.264583;stroke-opacity:0.873786"
         d="m 76.5938,146.5191 c 0,0 2.629828,-1.4558 1.92541,-2.01933"
         id="path7215" /></g><g
       inkscape:groupmode="layer"
       id="layer6"
       inkscape:label="ear"
       transform="translate(-35.706262,-74.10791)"><path
         style="opacity:1;fill:#000000;fill-opacity:1;stroke:#000000;stroke-width:0.264583;stroke-opacity:0.873786"
         d="m 94.063385,110.92247 0.939226,0.8453 0.234804,1.31492 0.281768,0.75138 0.657458,-0.2348 0.187844,-1.26796 c 0,0 0.09392,-0.65746 0.187846,-0.89226 0.09392,-0.23481 0.516572,-0.56354 0.516572,-0.56354 l -0.375689,-0.79834 -1.174031,-0.14088 -0.986187,0.28176 z"
         id="path7222" /><path
         style="opacity:1;fill:#000000;fill-opacity:1;stroke:#000000;stroke-width:0.264583;stroke-opacity:0.873786"
         d="m 93.781617,107.54126 1.080108,-0.32873 0.845304,-0.14088 0.657456,0.32873 -0.281766,0.98619 -0.422653,0.46961 -1.314913,-0.46961 z"
         id="path7224" /><path
         style="opacity:1;fill:#000000;fill-opacity:1;stroke:#000000;stroke-width:0.264583;stroke-opacity:0.873786"
         d="m 98.955724,102.94052 c -5.844365,-5.180234 -7.836763,5.18023 -7.836763,5.18023 0,0 5.578712,-8.10241 7.836763,-5.18023 z"
         id="path7228" /></g><g
       inkscape:groupmode="layer"
       id="layer7"
       inkscape:label="hand"
       transform="translate(-35.706262,-74.10791)"><path
         style="opacity:1;fill:none;fill-opacity:1;stroke:#000000;stroke-width:0.264583;stroke-opacity:0.873786"
         d="m 99.557852,138.25392 1.127068,3.00552 0.8453,3.7569 0.56354,4.13259 0.8453,4.41436 0.28177,2.16022 1.6906,2.81767 1.69061,1.12707 1.78453,0.46961"
         id="path7233" /><path
         style="opacity:1;fill:none;fill-opacity:1;stroke:#000000;stroke-width:0.264583;stroke-opacity:0.873786"
         d="m 93.875539,120.26776 c 0,0 3.522093,0.18785 3.709939,2.3011 v 0 l 1.220994,1.64365 -0.516574,-3.28729 0.328729,-2.67679 0.09392,-2.81768 0.187845,-2.39502 -0.469613,-2.16022 -0.493093,-2.04281 -0.422651,-0.75138 -0.281768,-0.65746 c 0,0 0.258287,-4.74308 3.850823,-1.38536 l 1.39154,2.54714 1.12902,4.44969 0.66413,2.45729 v 2.32446 l 0.4649,2.85577 0.39848,1.19544 c 0,0 2.78935,3.78556 2.32446,4.58252 -0.46489,0.79695 1.46109,0.19923 1.46109,0.19923 l -1.26185,-2.45728 c 0,0 -1.26185,-2.19164 -1.26185,-2.59012 0,-0.39848 -1.39468,-5.11382 -1.39468,-5.11382 l -0.92979,-3.5199 -1.32826,-5.84437 v -1.32826 l -0.19924,-1.66033 0.0664,-0.92979 -0.73054,-1.46109 -0.66414,-1.5275 c 0,0 1.85958,-3.719145 4.31687,-0.19924 2.45729,3.5199 2.5237,6.90697 2.5237,6.90697 l 0.39848,2.05881 0.19924,1.85957 -0.19924,1.39468 0.13282,1.85957 0.26566,0.92979 0.66413,1.85957 0.26565,0.86337 0.33207,1.52751 0.26565,0.99619 0.53131,1.4611 0.26565,1.72674 0.33207,0.79696 0.0664,0.66413 0.53131,0.46489 0.5313,0.0664 0.33207,-0.9962 -0.59772,-2.45729 -0.86337,-2.12523 -1.26185,-2.65652 -0.59772,-2.52371 -0.0664,-2.45729 0.0664,-2.85577 0.5313,-3.91838 0.0664,-1.26185 -0.39848,-1.59392 c 0,0 1.12902,-3.055006 3.45348,-0.59772 2.32447,2.45729 1.26186,7.30546 1.26186,7.30546 l 0.26565,1.46109 -0.0664,1.85957 0.0664,2.25805 0.39848,1.06261 v 0.92979 l 0.79696,1.46109 0.86337,1.59392 0.46489,3.45349 0.0664,0.79696 2.12523,5.97719 1.59392,4.0512 0.59772,1.06262 0.39847,0.0664 0.73055,-1.59392 0.19924,-2.25805 0.79696,-4.44969 0.86337,-3.71914 0.86337,-2.72294 0.53131,-0.92979 c 0,0 4.78175,-4.58251 5.24664,1.39468 0.4649,5.97719 -0.99619,11.62232 -0.99619,11.62232 l -0.19924,1.9924 0.26565,9.09861 -0.0664,2.39088 -1.06262,2.45729 -2.25805,4.11762 c 0,0 -2.19163,4.11762 -2.92218,3.98479 -0.73054,-0.13282 -2.19163,2.5237 -2.19163,2.5237 l -1.59392,0.92979 -1.52751,2.32446 -1.72674,2.32447 -1.72675,2.98859 -1.5275,2.19164 -0.26565,0.33207 -5.31306,-6.37568 1.32826,-1.72674 -0.13282,-1.5275 -1.19544,-0.66414"
         id="path7235" /><path
         style="opacity:1;fill:none;fill-opacity:1;stroke:#000000;stroke-width:0.264583;stroke-opacity:0.873786"
         d="m 99.68627,124.59123 2.25805,4.05121 1.12902,1.26185 1.46109,1.79316"
         id="path7237" /></g><g
       inkscape:groupmode="layer"
       id="layer8"
       inkscape:label="jacket"
       transform="translate(-35.706262,-74.10791)"><path
         style="opacity:1;fill:none;fill-opacity:1;stroke:#000000;stroke-width:0.264583;stroke-opacity:0.873786"
         d="m 95.988795,89.038529 2.911599,-1.97237 2.348056,0.187843 3.00553,-0.09392 2.62982,-2.629828 1.87846,-1.033148 3.00551,0.187844 3.09945,-1.690606 2.44198,0.09392 4.6022,0.657455 4.03867,-0.187844 1.78453,-0.281768 5.16574,0.939226 3.19336,0.845301 4.50828,3.28729 2.44199,1.596681"
         id="path7240" /><path
         style="opacity:1;fill:#000000;fill-opacity:1;stroke:#000000;stroke-width:0.264583;stroke-opacity:0.873786"
         d="m 140.03845,91.010903 1.03315,-0.281768 0.56353,3.381211 -1.03315,2.348063 -1.6906,2.441985 -1.22099,2.817676 -1.40884,-0.28177 1.12707,-2.348062 1.78453,-2.629829 1.40883,-3.569057 z"
         id="path7242" /><path
         style="opacity:1;fill:#000000;fill-opacity:1;stroke:#000000;stroke-width:0.264583;stroke-opacity:0.873786"
         d="m 120.03296,114.58545 2.34806,-3.09944 c 0,0 2.44198,-0.28177 2.53591,-0.65746 0.0939,-0.37569 2.06629,-2.72375 2.34806,-3.09944 0.28177,-0.37569 2.25414,-3.09944 2.25414,-3.09944 l 2.34806,-1.87845 1.87845,-0.37569 -3.66298,3.94474 -2.16021,2.34806 -0.93923,1.12707 -0.46961,1.40884 -1.78453,1.22099 -1.97237,0.18785 z"
         id="path7244" /><path
         style="opacity:1;fill:#000000;fill-opacity:1;stroke:#000000;stroke-width:0.264583;stroke-opacity:0.873786"
         d="m 97.585478,91.950129 2.066296,-1.12707 2.629826,0.37569 3.09945,-1.972373 2.34806,0.187846 -4.88397,2.817675 -1.31492,1.502759 -2.72375,0.187844 z"
         id="path7246" /><path
         style="opacity:1;fill:#000000;fill-opacity:1;stroke:#000000;stroke-width:0.264583;stroke-opacity:0.873786"
         d="m 114.49153,89.132454 2.81767,-2.723753 2.81768,-0.37569 0.28177,-1.596684 4.41435,0.37569 3.00552,1.596684 3.85083,-0.845302 3.85082,2.160217 3.19336,3.662977 -0.8453,3.569054 -0.46961,2.9116 -1.31492,-4.977895 -0.65745,-2.348061 c 0,0 -0.84531,-0.469614 -2.34807,-1.127069 -1.50276,-0.657458 -5.91712,-1.78453 -5.91712,-1.78453 l -3.66297,-0.187844 -2.72375,0.469612 -3.19337,0.75138 z"
         id="path7248" /><path
         style="opacity:1;fill:#000000;fill-opacity:1;stroke:#000000;stroke-width:0.264583;stroke-opacity:0.873786"
         d="m 99.276084,95.988795 3.944746,-1.408838 1.59668,-1.97237 2.81768,1.784527 4.88397,-1.502762 2.91159,-1.596681 5.8232,-2.817675 5.07181,0.09392 3.19337,1.690605 3.7569,1.033148 1.12707,2.911597 v 2.911599 l -3.94475,2.72375 c 0,0 -1.22099,1.033145 -1.59668,1.596685 -0.37569,0.56354 -2.53591,3.7569 -2.53591,3.7569 l -2.25414,1.78453 -0.8453,1.03315 c 0,0 -2.25414,-1.59669 -2.44198,-2.0663 -0.18785,-0.46961 -0.93923,-3.66298 -1.69061,-4.50828 -0.75138,-0.8453 -1.59668,-2.441986 -2.0663,-2.629832 -0.46961,-0.187844 -2.44198,-1.033148 -2.44198,-1.033148 0,0 -3.28729,-0.281765 -4.03867,-0.281765 -0.75138,0 -4.32043,-0.187847 -4.32043,-0.187847 l -2.0663,-1.033147 -3.38121,2.254141 -1.97237,-1.033147 z"
         id="path7250" /><path
         style="opacity:1;fill:none;fill-opacity:1;stroke:#000000;stroke-width:0.264583;stroke-opacity:0.873786"
         d="m 151.1213,96.270563 c 1.04227,-0.521137 11.94852,16.614107 7.98342,22.447487"
         id="path7252"
         sodipodi:nodetypes="cc" /><path
         style="opacity:1;fill:#000000;fill-opacity:1;stroke:#000000;stroke-width:0.264583;stroke-opacity:0.873786"
         d="m 142.19867,123.22632 4.69612,0.93923 3.19337,-3.19337 3.19336,-0.37569 -0.75138,3.19337 -7.5138,3.00551 -3.56905,1.87846 -1.69061,1.6906 -1.6906,-0.18784 1.31491,-4.88397 z"
         id="path7256" /><path
         style="opacity:1;fill:none;fill-opacity:1;stroke:#000000;stroke-width:0.264583;stroke-opacity:0.873786"
         d="m 158.91687,123.03848 -2.06629,2.25414 4.13259,1.31491 3.00552,1.69061 6.38673,4.88397 2.44198,0.93922"
         id="path7258" /><path
         style="opacity:1;fill:none;fill-opacity:1;stroke:#000000;stroke-width:0.264583;stroke-opacity:0.873786"
         d="m 169.99973,135.99978 c 0,0 -13.337,11.83423 -7.88949,16.34252"
         id="path7260" /><path
         style="opacity:1;fill:none;fill-opacity:1;stroke:#000000;stroke-width:0.264583;stroke-opacity:0.873786"
         d="m 160.79532,156.0992 -1.87845,6.19888 0.56354,6.95027 1.6906,12.58561 1.12707,8.82872 v 0.37569 l -4.88397,-0.93923 -0.93922,-13.14915 -1.31492,-6.76242"
         id="path7262" /><path
         style="opacity:1;fill:none;fill-opacity:1;stroke:#000000;stroke-width:0.264583;stroke-opacity:0.873786"
         d="m 128.86167,161.5467 3.00552,17.65743 0.56353,5.25966 3.38122,2.81768 2.62983,1.87845"
         id="path7264" /><path
         style="display:inline;opacity:1;fill:none;fill-opacity:1;stroke:#000000;stroke-width:0.264583;stroke-opacity:0.873786"
         d="m 114.36359,184.09749 0.66414,9.69634 0.66413,10.09481 0.13283,2.25805 6.11001,-3.85197 3.32067,-2.12522 4.78175,-3.71915 7.83676,-1.46109 6.5085,-3.055"
         id="path7266" /><path
         style="display:inline;opacity:1;fill:none;fill-opacity:1;stroke:#000000;stroke-width:0.264583;stroke-opacity:0.873786"
         d="m 119.27817,165.36896 1.4611,2.78936 0.26565,3.32066 -0.26565,2.39088 -2.78936,1.19543 -2.92218,-2.12522 -0.66414,-1.32827"
         id="path7268" /><path
         style="display:inline;opacity:1;fill:none;fill-opacity:1;stroke:#000000;stroke-width:0.264583;stroke-opacity:0.873786"
         d="m 93.509837,161.25134 c 0,0 0.664133,7.83676 1.19544,9.29785 0.531305,1.46109 5.180232,6.11002 5.180232,6.11002 l 3.984791,2.92218 3.32066,2.52371 4.38328,0.79696 5.31306,-3.18784 3.45349,-3.58631 1.19543,-1.85958 0.92979,-2.92218 -0.26565,-2.78935 -0.79696,-2.25805"
         id="path7270" /><path
         style="display:inline;opacity:1;fill:none;fill-opacity:1;stroke:#000000;stroke-width:0.264583;stroke-opacity:0.873786"
         d="m 69.866726,179.71422 2.125223,-3.58631 2.789357,-2.39088 3.851968,-2.78936 5.977191,-4.11762 4.117621,-3.58631"
         id="path7272" /><path
         style="display:inline;opacity:1;fill:none;fill-opacity:1;stroke:#000000;stroke-width:0.264583;stroke-opacity:0.873786"
         d="m 70.663685,182.50357 2.523702,8.89938 4.383273,7.43828 4.648927,4.5161 5.711539,-6.77415 5.047406,-6.37567 4.516099,-4.38327"
         id="path7274" /><path
         style="display:inline;opacity:1;fill:none;fill-opacity:1;stroke:#000000;stroke-width:0.264583;stroke-opacity:0.873786"
         d="m 55.255813,187.55098 7.703936,-3.45349 1.992397,-1.85957 1.195438,-0.5313"
         id="path7276" /><path
         style="display:inline;opacity:1;fill:none;fill-opacity:1;stroke:#000000;stroke-width:0.264583;stroke-opacity:0.873786"
         d="m 57.513862,162.18113 5.445887,8.23524 3.320661,1.59391 2.523704,4.25045"
         id="path7278" /><path
         style="display:inline;opacity:1;fill:none;fill-opacity:1;stroke:#000000;stroke-width:0.264583;stroke-opacity:0.873786"
         d="m 112.76968,183.96467 -7.03981,9.43068 -3.32066,3.58631 -5.313057,6.5085 -1.859571,3.32066"
         id="path7280" /><path
         style="display:inline;opacity:1;fill:none;fill-opacity:1;stroke:#000000;stroke-width:0.264583;stroke-opacity:0.873786"
         d="m 108.51923,192.59839 v 6.24284 l 0.92978,6.37567 v 1.59392"
         id="path7282" /><path
         style="display:inline;opacity:1;fill:none;fill-opacity:1;stroke:#000000;stroke-width:0.264583;stroke-opacity:0.873786"
         d="m 52.33363,138.53801 -1.46109,0.79696 -0.132826,1.46109 v 1.32827 l -2.258052,1.85957 -1.726742,1.06261 -1.461093,1.85957 -0.398478,1.85957 4.11762,4.91458 1.992397,2.39088 v 2.39087 l -1.062611,3.32067 -0.79696,3.98479 -1.726745,2.5237 -1.062611,3.58632 -1.593916,6.11002 -1.328267,4.25044 -1.726742,4.11762 -2.258052,2.78936 -1.726742,1.72674 -1.726745,1.9924 h 0.132826"
         id="path7284" /><path
         style="display:inline;opacity:1;fill:#000000;fill-opacity:1;stroke:#000000;stroke-width:0.264583;stroke-opacity:0.873786"
         d="m 36.128801,200.30232 3.851968,-3.18783 2.65653,-2.12523 2.656528,-1.85957 2.390878,-1.72674 0.929786,-0.92979 0.398478,-0.92978 -1.461092,0.26565 -3.851966,2.65653 -3.45349,2.5237 -3.187835,1.9924 -0.796959,1.06261 z"
         id="path7286" /><path
         style="opacity:1;fill:#000000;fill-opacity:1;stroke:#000000;stroke-width:0.264583;stroke-opacity:0.873786"
         d="m 52.997763,139.06932 1.46109,-0.26565 4.383276,5.44588 4.383272,3.71914 2.656531,2.5237 3.719142,4.25045 1.46109,2.39088 4.781754,3.32066 3.453487,1.9924 -0.132826,0.39848 -2.25805,0.66413 -4.516101,-0.92979 -6.641322,-2.65652 -6.242847,-4.64893 -6.641322,-4.38327 -5.711539,-3.85197 2.390876,-1.72675 2.258052,-2.92218 z"
         id="path7310" /><path
         style="opacity:1;fill:#000000;fill-opacity:1;stroke:#000000;stroke-width:0.264583;stroke-opacity:0.873786"
         d="m 123.39579,160.0559 4.78176,-5.18023 4.91458,-9.82916 0.92978,-3.85197 2.78936,7.03981 0.66413,4.78175 0.79696,2.78936 c 0,0 -3.05501,1.85956 -3.58631,1.85956 -0.53131,0 -7.30546,1.9924 -7.30546,1.9924 z"
         id="path7314" /><path
         style="opacity:1;fill:#000000;fill-opacity:1;stroke:#000000;stroke-width:0.264583;stroke-opacity:0.873786"
         d="m 143.71825,157.5322 2.92218,7.57111 4.91458,5.31306 1.19544,2.12522"
         id="path7316" /><path
         style="display:inline;opacity:1;fill:#000000;fill-opacity:1;stroke:#000000;stroke-width:0.264583;stroke-opacity:0.873786"
         d="m 158.91687,193.85604 3.19337,-1.50276 c 0,0 2.81767,12.77346 5.63535,14.46407 2.81767,1.6906 -4.88397,-3.7569 -4.88397,-3.7569 l -1.31492,-3.19337 z"
         id="path7318" /><path
         style="display:inline;opacity:1;fill:#000000;fill-opacity:1;stroke:#000000;stroke-width:0.264583;stroke-opacity:0.873786"
         d="m 81.90042,192.16544 2.066296,-8.07734 5.071813,-3.56905 1.690606,-6.95027 3.569054,5.63535 3.381211,2.62983 1.878452,0.18785 -7.325955,3.56905 -5.071817,3.56906 z"
         id="path7322" /><path
         style="display:inline;opacity:1;fill:#000000;fill-opacity:1;stroke:#000000;stroke-width:0.264583;stroke-opacity:0.873786"
         d="m 69.314805,190.85052 -4.88397,7.32596 0.563536,2.06629 0.939223,2.0663 6.574576,1.12707 3.381211,-0.18785 -2.629831,-6.01104 -0.939224,-3.00552 z"
         id="path7324" /></g><g
       inkscape:groupmode="layer"
       id="layer9"
       inkscape:label="final touches"
       transform="translate(-35.706262,-74.10791)"><path
         style="opacity:1;fill:none;fill-opacity:1;stroke:#000000;stroke-width:0.264583;stroke-opacity:0.873786"
         d="m 41.176207,111.70707 1.328264,5.24664 0.996198,2.92218 1.593919,2.85577 1.726745,1.9924 1.062611,2.59012"
         id="path7364" /><path
         style="opacity:1;fill:none;fill-opacity:1;stroke:#000000;stroke-width:0.264583;stroke-opacity:0.873786"
         d="m 51.986105,131.91415 0.140883,1.40884 0.328729,0.8453 0.986187,1.92541 0.234804,0.70442 -0.140883,0.56354 -0.79834,0.56353"
         id="path7372" /><path
         style="opacity:1;fill:none;fill-opacity:1;stroke:#000000;stroke-width:0.264583;stroke-opacity:0.873786"
         d="m 118.5302,132.99426 -1.31492,3.00552 -0.37569,5.25966 0.18784,2.0663 0.75139,4.88397 0.56353,1.31491 1.12707,3.94475"
         id="path7376" /><path
         style="opacity:1;fill:#000000;fill-opacity:1;stroke:#000000;stroke-width:0.264583;stroke-opacity:0.873786"
         d="m 91.251787,152.35197 -0.531304,-2.25805 0.332065,-1.4611 2.590118,-2.19163 2.390875,-0.39848 1.195438,-0.33207 1.195438,0.73055 1.992393,-0.33207 1.32827,3.78556 0.0664,3.58631 -0.5313,1.79316 -2.590118,2.25805 -0.863373,0.9962 -0.464894,-1.12903 -2.125223,-1.79316 c 0,0 -1.992397,-1.06261 -2.390876,-1.46109 -0.398481,-0.39847 -1.593919,-1.79315 -1.593919,-1.79315 z"
         id="path7378" /></g></g><g
     id="g728"
     transform="translate(-20.579754,-127.2203)"><path
       id="rect587"
       style="fill:#ffffff;stroke-width:0.32493"
       d="m 96.53775,184.46942 h 82.31902 v 23.199 H 96.53775 Z" /><g
       aria-label="https://loooong.com/?param0
=wh4Qsus&amp;param1=24.243&amp;
param2=98.2404..."
       id="text655"
       style="font-style:italic;font-size:6.35px;font-family:Carlito;-inkscape-font-specification:'Carlito Italic';stroke-width:0.264583"><path
         d="m 98.282516,189.70792 0.530201,-4.40904 h 0.542602 l -0.248047,2.05569 q 0.241846,-0.35657 0.539502,-0.5395 0.297657,-0.18293 0.607716,-0.18293 0.19844,0 0.35037,0.0775 0.15192,0.0744 0.24494,0.22014 0.0961,0.14573 0.13023,0.35967 0.0341,0.21394 0,0.48679 l -0.22635,1.93167 h -0.5426 l 0.22634,-1.93167 q 0.0434,-0.35657 -0.0465,-0.5271 -0.0899,-0.17053 -0.33486,-0.17053 -0.139525,0 -0.288353,0.0744 -0.145727,0.0713 -0.282153,0.20464 -0.136426,0.13333 -0.260449,0.32556 -0.120923,0.18914 -0.20774,0.42168 l -0.192236,1.60301 z"
         id="path731" /><path
         d="m 102.4373,189.75443 q -0.34726,0 -0.5147,-0.19844 -0.16433,-0.19844 -0.11782,-0.57361 l 0.22634,-1.86345 h -0.35036 q -0.0434,0 -0.0744,-0.031 -0.0279,-0.031 -0.0217,-0.0868 l 0.0248,-0.20773 0.48989,-0.0589 0.24184,-0.94257 q 0.0124,-0.0434 0.0465,-0.0713 0.0341,-0.0279 0.0837,-0.0279 h 0.26355 l -0.13023,1.04489 h 1.38907 l 0.23874,-0.94567 q 0.0124,-0.0465 0.0465,-0.0713 0.0372,-0.0279 0.0868,-0.0279 h 0.26665 l -0.13023,1.04489 h 0.84956 l -0.0434,0.38138 h -0.85266 l -0.22634,1.82934 q -0.0248,0.19224 0.0527,0.28526 0.0806,0.093 0.22014,0.093 0.0837,0 0.14573,-0.0217 0.062,-0.0248 0.10852,-0.0496 0.0465,-0.0279 0.0775,-0.0496 0.0341,-0.0248 0.0589,-0.0248 0.0248,0 0.0372,0.0124 0.0124,0.0124 0.0279,0.0372 l 0.13022,0.25114 q -0.15193,0.13023 -0.35036,0.20154 -0.19844,0.0713 -0.40308,0.0713 -0.35037,0 -0.5178,-0.19844 -0.16433,-0.19844 -0.11782,-0.57361 l 0.22944,-1.86345 h -1.37046 l -0.22324,1.82934 q -0.0248,0.19534 0.0527,0.28836 0.0806,0.0899 0.22014,0.0899 0.0837,0 0.14573,-0.0217 0.062,-0.0248 0.10852,-0.0496 0.0465,-0.0279 0.0775,-0.0496 0.0341,-0.0248 0.0589,-0.0248 0.0248,0 0.0372,0.0124 0.0155,0.0124 0.031,0.0372 l 0.12402,0.25114 q -0.15192,0.13023 -0.35036,0.20154 -0.19844,0.0713 -0.40308,0.0713 z"
         id="path733" /><path
         d="m 105.36735,190.73111 0.493,-4.05867 h 0.27285 q 0.0899,0 0.13643,0.0465 0.0496,0.0434 0.0434,0.13643 l -0.0496,0.65422 q 0.12093,-0.19844 0.26045,-0.35967 0.14263,-0.16433 0.29766,-0.27905 0.15813,-0.11472 0.32866,-0.17673 0.17053,-0.062 0.34727,-0.062 0.41548,0 0.64182,0.28525 0.22634,0.28215 0.22634,0.83096 0,0.24494 -0.0527,0.48989 -0.0527,0.24494 -0.15193,0.46819 -0.0961,0.22014 -0.23564,0.41237 -0.13953,0.19224 -0.31006,0.33177 -0.17053,0.13952 -0.37207,0.22014 -0.19844,0.0806 -0.41858,0.0806 -0.23564,0 -0.43408,-0.0899 -0.19534,-0.0899 -0.33176,-0.25425 l -0.16123,1.32395 z m 1.92857,-3.66489 q -0.15503,0 -0.31316,0.0899 -0.15503,0.0899 -0.30076,0.25115 -0.14572,0.16123 -0.27285,0.38447 -0.12402,0.22015 -0.21394,0.4837 l -0.093,0.75964 q 0.12403,0.16433 0.29456,0.22944 0.17053,0.0651 0.34727,0.0651 0.25114,0 0.44958,-0.13952 0.20154,-0.13953 0.34106,-0.35967 0.13953,-0.22324 0.21394,-0.49299 0.0775,-0.27285 0.0775,-0.5395 0,-0.35967 -0.13953,-0.54571 -0.13642,-0.18603 -0.39067,-0.18603 z"
         id="path735" /><path
         d="m 110.77478,187.16544 q -0.0248,0.0341 -0.0496,0.0527 -0.0248,0.0155 -0.0651,0.0155 -0.0434,0 -0.0961,-0.0341 -0.0496,-0.0341 -0.12713,-0.0713 -0.0744,-0.0403 -0.18293,-0.0744 -0.10542,-0.0341 -0.26045,-0.0341 -0.14573,0 -0.26665,0.0372 -0.11782,0.0372 -0.20464,0.10231 -0.0837,0.0651 -0.13332,0.15193 -0.0465,0.0868 -0.0465,0.18294 0,0.10542 0.0558,0.18603 0.0589,0.0775 0.15503,0.14263 0.0961,0.0651 0.21704,0.12092 0.12092,0.0527 0.24804,0.10852 0.12713,0.0527 0.24805,0.11473 0.12092,0.0589 0.21704,0.13642 0.0961,0.0744 0.15193,0.17363 0.0589,0.0961 0.0589,0.22635 0,0.20774 -0.0868,0.39997 -0.0868,0.18914 -0.24805,0.33487 -0.15813,0.14262 -0.38757,0.22944 -0.22945,0.0868 -0.5116,0.0868 -0.30696,0 -0.5426,-0.10232 -0.23255,-0.10232 -0.38138,-0.26665 l 0.13023,-0.20464 q 0.0527,-0.0837 0.14263,-0.0837 0.0496,0 0.0992,0.0434 0.0527,0.0434 0.13023,0.0961 0.0775,0.0496 0.19224,0.093 0.11782,0.0403 0.29765,0.0403 0.15813,0 0.28526,-0.0434 0.12712,-0.0434 0.21394,-0.11782 0.0899,-0.0744 0.13642,-0.17053 0.0465,-0.0992 0.0465,-0.21084 0,-0.15503 -0.0992,-0.25115 -0.0992,-0.0961 -0.25115,-0.16433 -0.14882,-0.0713 -0.32556,-0.13332 -0.17363,-0.062 -0.32556,-0.14263 -0.14883,-0.0837 -0.24805,-0.20464 -0.0992,-0.12402 -0.0992,-0.31626 0,-0.18913 0.0806,-0.36587 0.0806,-0.17983 0.22944,-0.31626 0.15193,-0.13642 0.36587,-0.21704 0.21704,-0.0837 0.48369,-0.0837 0.29146,0 0.5085,0.0899 0.22014,0.0899 0.37827,0.24805 z"
         id="path737" /><path
         d="m 111.27707,189.70792 z m 0.76585,-0.33177 q 0,0.0775 -0.031,0.14883 -0.031,0.0682 -0.0868,0.12092 -0.0527,0.0496 -0.12402,0.0806 -0.0682,0.031 -0.14573,0.031 -0.0775,0 -0.14572,-0.031 -0.0682,-0.031 -0.12093,-0.0806 -0.0496,-0.0527 -0.0806,-0.12092 -0.031,-0.0713 -0.031,-0.14883 0,-0.0806 0.031,-0.14882 0.031,-0.0713 0.0806,-0.12403 0.0527,-0.0527 0.12093,-0.0837 0.0682,-0.031 0.14572,-0.031 0.0775,0 0.14883,0.031 0.0713,0.031 0.12402,0.0837 0.0527,0.0527 0.0837,0.12403 0.031,0.0682 0.031,0.14882 z m 0.25424,-2.10219 q 0,0.0775 -0.031,0.14882 -0.031,0.0682 -0.0868,0.12093 -0.0527,0.0496 -0.12402,0.0806 -0.0682,0.031 -0.14573,0.031 -0.0775,0 -0.14573,-0.031 -0.0682,-0.031 -0.12092,-0.0806 -0.0496,-0.0527 -0.0806,-0.12093 -0.031,-0.0713 -0.031,-0.14882 0,-0.0806 0.031,-0.14883 0.031,-0.0713 0.0806,-0.12403 0.0527,-0.0527 0.12092,-0.0837 0.0682,-0.031 0.14573,-0.031 0.0775,0 0.14883,0.031 0.0713,0.031 0.12402,0.0837 0.0527,0.0527 0.0837,0.12403 0.031,0.0682 0.031,0.14883 z"
         id="path739" /><path
         d="m 112.92658,189.77923 q -0.0496,0.0992 -0.13642,0.14883 -0.0868,0.0527 -0.17364,0.0527 h -0.22014 l 2.52078,-4.42144 q 0.0434,-0.0899 0.12092,-0.13952 0.0806,-0.0527 0.17984,-0.0527 h 0.22324 z"
         id="path741" /><path
         d="m 115.38845,189.77923 q -0.0496,0.0992 -0.13643,0.14883 -0.0868,0.0527 -0.17363,0.0527 h -0.22014 l 2.52077,-4.42144 q 0.0434,-0.0899 0.12093,-0.13952 0.0806,-0.0527 0.17983,-0.0527 h 0.22324 z"
         id="path743" /><path
         d="m 117.86582,189.70792 0.5302,-4.40904 h 0.5364 l -0.5333,4.40904 z"
         id="path745" /><path
         d="m 120.49821,189.32654 q 0.24185,0 0.43719,-0.11782 0.19533,-0.11782 0.33176,-0.31316 0.13952,-0.19533 0.21394,-0.45268 0.0775,-0.25735 0.0775,-0.5364 0,-0.42478 -0.18913,-0.63872 -0.18914,-0.21395 -0.5395,-0.21395 -0.24185,0 -0.43719,0.11783 -0.19533,0.11472 -0.33486,0.31006 -0.13643,0.19533 -0.21394,0.45268 -0.0744,0.25425 -0.0744,0.5333 0,0.42478 0.18603,0.64182 0.18914,0.21704 0.5426,0.21704 z m -0.0465,0.42478 q -0.26975,0 -0.49609,-0.0868 -0.22634,-0.0868 -0.39067,-0.25115 -0.16123,-0.16433 -0.25115,-0.39997 -0.0899,-0.23875 -0.0899,-0.54261 0,-0.38137 0.12403,-0.71623 0.12712,-0.33487 0.34726,-0.58291 0.22324,-0.25115 0.524,-0.39688 0.30386,-0.14573 0.65422,-0.14573 0.26976,0 0.4961,0.0868 0.22634,0.0868 0.38757,0.25115 0.16433,0.16123 0.25425,0.39997 0.093,0.23875 0.093,0.53951 0,0.37827 -0.12713,0.71313 -0.12712,0.33486 -0.35036,0.58601 -0.22015,0.25115 -0.524,0.39998 -0.30076,0.14572 -0.65113,0.14572 z"
         id="path747" /><path
         d="m 123.75693,189.32654 q 0.24185,0 0.43718,-0.11782 0.19534,-0.11782 0.33177,-0.31316 0.13952,-0.19533 0.21394,-0.45268 0.0775,-0.25735 0.0775,-0.5364 0,-0.42478 -0.18914,-0.63872 -0.18913,-0.21395 -0.5395,-0.21395 -0.24184,0 -0.43718,0.11783 -0.19534,0.11472 -0.33486,0.31006 -0.13643,0.19533 -0.21394,0.45268 -0.0744,0.25425 -0.0744,0.5333 0,0.42478 0.18604,0.64182 0.18913,0.21704 0.5426,0.21704 z m -0.0465,0.42478 q -0.26975,0 -0.49609,-0.0868 -0.22635,-0.0868 -0.39068,-0.25115 -0.16123,-0.16433 -0.25114,-0.39997 -0.0899,-0.23875 -0.0899,-0.54261 0,-0.38137 0.12402,-0.71623 0.12713,-0.33487 0.34727,-0.58291 0.22324,-0.25115 0.524,-0.39688 0.30385,-0.14573 0.65422,-0.14573 0.26975,0 0.49609,0.0868 0.22635,0.0868 0.38758,0.25115 0.16433,0.16123 0.25425,0.39997 0.093,0.23875 0.093,0.53951 0,0.37827 -0.12712,0.71313 -0.12712,0.33486 -0.35037,0.58601 -0.22014,0.25115 -0.524,0.39998 -0.30075,0.14572 -0.65112,0.14572 z"
         id="path749" /><path
         d="m 127.01565,189.32654 q 0.24184,0 0.43718,-0.11782 0.19534,-0.11782 0.33176,-0.31316 0.13953,-0.19533 0.21394,-0.45268 0.0775,-0.25735 0.0775,-0.5364 0,-0.42478 -0.18914,-0.63872 -0.18913,-0.21395 -0.5395,-0.21395 -0.24185,0 -0.43718,0.11783 -0.19534,0.11472 -0.33487,0.31006 -0.13642,0.19533 -0.21394,0.45268 -0.0744,0.25425 -0.0744,0.5333 0,0.42478 0.18603,0.64182 0.18914,0.21704 0.54261,0.21704 z m -0.0465,0.42478 q -0.26975,0 -0.4961,-0.0868 -0.22634,-0.0868 -0.39067,-0.25115 -0.16123,-0.16433 -0.25115,-0.39997 -0.0899,-0.23875 -0.0899,-0.54261 0,-0.38137 0.12402,-0.71623 0.12712,-0.33487 0.34726,-0.58291 0.22325,-0.25115 0.524,-0.39688 0.30386,-0.14573 0.65423,-0.14573 0.26975,0 0.49609,0.0868 0.22634,0.0868 0.38757,0.25115 0.16434,0.16123 0.25425,0.39997 0.093,0.23875 0.093,0.53951 0,0.37827 -0.12712,0.71313 -0.12713,0.33486 -0.35037,0.58601 -0.22014,0.25115 -0.524,0.39998 -0.30076,0.14572 -0.65112,0.14572 z"
         id="path751" /><path
         d="m 130.27436,189.32654 q 0.24185,0 0.43718,-0.11782 0.19534,-0.11782 0.33177,-0.31316 0.13952,-0.19533 0.21394,-0.45268 0.0775,-0.25735 0.0775,-0.5364 0,-0.42478 -0.18913,-0.63872 -0.18914,-0.21395 -0.53951,-0.21395 -0.24184,0 -0.43718,0.11783 -0.19534,0.11472 -0.33486,0.31006 -0.13643,0.19533 -0.21394,0.45268 -0.0744,0.25425 -0.0744,0.5333 0,0.42478 0.18604,0.64182 0.18913,0.21704 0.5426,0.21704 z m -0.0465,0.42478 q -0.26975,0 -0.49609,-0.0868 -0.22634,-0.0868 -0.39068,-0.25115 -0.16123,-0.16433 -0.25114,-0.39997 -0.0899,-0.23875 -0.0899,-0.54261 0,-0.38137 0.12402,-0.71623 0.12713,-0.33487 0.34727,-0.58291 0.22324,-0.25115 0.524,-0.39688 0.30386,-0.14573 0.65422,-0.14573 0.26975,0 0.4961,0.0868 0.22634,0.0868 0.38757,0.25115 0.16433,0.16123 0.25425,0.39997 0.093,0.23875 0.093,0.53951 0,0.37827 -0.12712,0.71313 -0.12712,0.33486 -0.35037,0.58601 -0.22014,0.25115 -0.52399,0.39998 -0.30076,0.14572 -0.65113,0.14572 z"
         id="path753" /><path
         d="m 132.30834,189.70792 0.36277,-3.03548 h 0.26975 q 0.0899,0 0.13643,0.0465 0.0496,0.0434 0.0434,0.13643 l -0.0403,0.59531 q 0.24805,-0.40618 0.56431,-0.61082 0.31936,-0.20773 0.65422,-0.20773 0.19844,0 0.35037,0.0775 0.15193,0.0744 0.24494,0.22014 0.0961,0.14573 0.13023,0.35967 0.0372,0.21394 0.003,0.48679 l -0.22634,1.93167 h -0.54261 l 0.22635,-1.93167 q 0.0465,-0.35657 -0.0465,-0.524 -0.0899,-0.17053 -0.33797,-0.17053 -0.14883,0 -0.30385,0.0775 -0.15503,0.0775 -0.30076,0.22325 -0.14263,0.14262 -0.26665,0.34416 -0.12403,0.20154 -0.20774,0.45269 l -0.17053,1.52859 z"
         id="path755" /><path
         d="m 138.05063,187.5158 q 0,0.14883 -0.0372,0.26665 -0.0341,0.11782 -0.0899,0.22014 -0.0527,0.10232 -0.11782,0.19224 -0.062,0.0868 -0.11783,0.17673 -0.0558,0.0868 -0.093,0.17984 -0.0372,0.093 -0.0372,0.20154 0,0.0837 0.031,0.15813 0.031,0.0713 0.0806,0.14262 0.0496,0.0713 0.10542,0.14573 0.0558,0.0713 0.10542,0.15193 0.0496,0.0806 0.0806,0.17673 0.0341,0.093 0.0341,0.20774 0,0.21084 -0.10232,0.40308 -0.10232,0.19223 -0.29765,0.33796 -0.19224,0.14573 -0.46819,0.23255 -0.27596,0.0868 -0.62012,0.0868 -0.27595,0 -0.5054,-0.0558 -0.22634,-0.0527 -0.38757,-0.15193 -0.16123,-0.0992 -0.25115,-0.23874 -0.0899,-0.13953 -0.0899,-0.30696 0,-0.19224 0.0837,-0.33796 0.0837,-0.14883 0.22635,-0.25425 0.14572,-0.10852 0.33796,-0.17364 0.19224,-0.0682 0.40928,-0.0992 0.22014,-0.0341 0.44958,-0.0341 0.23255,0 0.45579,0.031 -0.031,-0.0558 -0.0496,-0.11783 -0.0186,-0.062 -0.0186,-0.13332 0,-0.0899 0.0279,-0.18914 0.0279,-0.10232 0.0992,-0.22014 -0.12402,0.0775 -0.27285,0.12092 -0.14573,0.0403 -0.33487,0.0403 -0.18603,0 -0.35036,-0.0558 -0.16123,-0.0589 -0.28216,-0.17053 -0.11782,-0.11162 -0.18913,-0.27905 -0.0682,-0.16744 -0.0682,-0.39068 0,-0.21704 0.0806,-0.42168 0.0837,-0.20774 0.24185,-0.36897 0.16123,-0.16123 0.39687,-0.25735 0.23565,-0.0992 0.5426,-0.0992 0.34417,0 0.60152,0.15192 h 0.88056 l -0.0217,0.17984 q -0.006,0.0527 -0.0372,0.093 -0.0279,0.0372 -0.0837,0.0465 l -0.40928,0.0713 q 0.062,0.15193 0.062,0.34106 z m -1.21853,0.82166 q 0.17363,0 0.30696,-0.0682 0.13643,-0.0713 0.22634,-0.18293 0.093,-0.11162 0.13953,-0.25425 0.0496,-0.14263 0.0496,-0.28835 0,-0.26355 -0.14573,-0.39998 -0.14263,-0.13952 -0.40308,-0.13952 -0.17363,0 -0.31005,0.0651 -0.13333,0.0651 -0.22325,0.17363 -0.0899,0.10852 -0.13642,0.25115 -0.0465,0.13952 -0.0465,0.28835 0,0.26975 0.14263,0.41238 0.14572,0.14263 0.39997,0.14263 z m 0.66663,1.43867 q 0,-0.0775 -0.0186,-0.13953 -0.0155,-0.0651 -0.0403,-0.12402 -0.43099,-0.0651 -0.74414,-0.0496 -0.31006,0.0155 -0.5147,0.0868 -0.20154,0.0713 -0.29766,0.18293 -0.0961,0.11162 -0.0961,0.24185 0,0.21394 0.19844,0.32556 0.19844,0.11472 0.56121,0.11472 0.21394,0 0.39067,-0.0527 0.17673,-0.0496 0.30076,-0.13643 0.12402,-0.0868 0.19223,-0.20463 0.0682,-0.11473 0.0682,-0.24495 z"
         id="path757" /><path
         d="m 138.90019,189.70792 z m 0.76585,-0.33177 q 0,0.0775 -0.031,0.14883 -0.031,0.0682 -0.0868,0.12092 -0.0527,0.0496 -0.12402,0.0806 -0.0682,0.031 -0.14573,0.031 -0.0775,0 -0.14573,-0.031 -0.0682,-0.031 -0.12092,-0.0806 -0.0496,-0.0527 -0.0806,-0.12092 -0.031,-0.0713 -0.031,-0.14883 0,-0.0806 0.031,-0.14882 0.031,-0.0713 0.0806,-0.12403 0.0527,-0.0527 0.12092,-0.0837 0.0682,-0.031 0.14573,-0.031 0.0775,0 0.14883,0.031 0.0713,0.031 0.12402,0.0837 0.0527,0.0527 0.0837,0.12403 0.031,0.0682 0.031,0.14882 z"
         id="path759" /><path
         d="m 142.71701,189.16221 q -0.15813,0.17364 -0.30075,0.28836 -0.14263,0.11162 -0.28836,0.17983 -0.14262,0.0651 -0.29765,0.093 -0.15193,0.0279 -0.33177,0.0279 -0.26665,0 -0.47129,-0.0899 -0.20463,-0.093 -0.34416,-0.25735 -0.13953,-0.16433 -0.21394,-0.39378 -0.0713,-0.22944 -0.0713,-0.50539 0,-0.36587 0.11472,-0.70383 0.11782,-0.33797 0.32556,-0.59842 0.21084,-0.26045 0.49919,-0.41548 0.29146,-0.15502 0.63872,-0.15502 0.30696,0 0.5116,0.10852 0.20774,0.10542 0.36587,0.31005 l -0.17053,0.20464 q -0.0186,0.0248 -0.0465,0.0403 -0.0279,0.0155 -0.0589,0.0155 -0.0434,0 -0.0868,-0.0372 -0.0403,-0.0372 -0.10542,-0.0837 -0.0651,-0.0465 -0.16743,-0.0837 -0.0992,-0.0372 -0.25425,-0.0372 -0.21084,0 -0.39687,0.11162 -0.18294,0.10852 -0.32246,0.30386 -0.13953,0.19223 -0.22015,0.45578 -0.0806,0.26355 -0.0806,0.56741 0,0.18603 0.0434,0.33796 0.0434,0.14883 0.12712,0.25735 0.0837,0.10542 0.20774,0.16433 0.12712,0.0558 0.29145,0.0558 0.20464,0 0.34107,-0.0589 0.13953,-0.0589 0.23254,-0.13022 0.0961,-0.0713 0.16123,-0.13023 0.0682,-0.0589 0.13023,-0.0589 0.0589,0 0.10232,0.0527 l 0.13642,0.16433 z"
         id="path761" /><path
         d="m 144.2549,189.32654 q 0.24185,0 0.43719,-0.11782 0.19533,-0.11782 0.33176,-0.31316 0.13953,-0.19533 0.21394,-0.45268 0.0775,-0.25735 0.0775,-0.5364 0,-0.42478 -0.18913,-0.63872 -0.18914,-0.21395 -0.5395,-0.21395 -0.24185,0 -0.43719,0.11783 -0.19533,0.11472 -0.33486,0.31006 -0.13642,0.19533 -0.21394,0.45268 -0.0744,0.25425 -0.0744,0.5333 0,0.42478 0.18603,0.64182 0.18914,0.21704 0.5426,0.21704 z m -0.0465,0.42478 q -0.26976,0 -0.4961,-0.0868 -0.22634,-0.0868 -0.39067,-0.25115 -0.16123,-0.16433 -0.25115,-0.39997 -0.0899,-0.23875 -0.0899,-0.54261 0,-0.38137 0.12403,-0.71623 0.12712,-0.33487 0.34726,-0.58291 0.22324,-0.25115 0.524,-0.39688 0.30386,-0.14573 0.65423,-0.14573 0.26975,0 0.49609,0.0868 0.22634,0.0868 0.38757,0.25115 0.16433,0.16123 0.25425,0.39997 0.093,0.23875 0.093,0.53951 0,0.37827 -0.12713,0.71313 -0.12712,0.33486 -0.35036,0.58601 -0.22014,0.25115 -0.524,0.39998 -0.30076,0.14572 -0.65112,0.14572 z"
         id="path763" /><path
         d="m 146.30439,189.70792 0.36277,-3.03548 h 0.26665 q 0.093,0 0.13953,0.0465 0.0496,0.0434 0.0434,0.13643 l -0.0403,0.5643 q 0.23564,-0.38757 0.5271,-0.58601 0.29145,-0.20153 0.61391,-0.20153 0.33487,0 0.4899,0.21394 0.15503,0.21084 0.15503,0.61391 0.23874,-0.42478 0.5426,-0.62632 0.30386,-0.20153 0.64182,-0.20153 0.41858,0 0.59221,0.29765 0.17363,0.29456 0.10542,0.84646 l -0.22944,1.93167 h -0.5364 l 0.22944,-1.93167 q 0.0217,-0.17673 0.0155,-0.30696 -0.003,-0.13022 -0.0434,-0.21704 -0.0372,-0.0868 -0.11472,-0.12712 -0.0775,-0.0434 -0.20154,-0.0434 -0.14262,0 -0.28525,0.0651 -0.13953,0.0651 -0.26975,0.19224 -0.13022,0.12712 -0.24495,0.31626 -0.11162,0.18603 -0.19843,0.43098 l -0.18914,1.62161 h -0.5364 l 0.22634,-1.93167 q 0.0217,-0.17673 0.0186,-0.30696 0,-0.13022 -0.0372,-0.21704 -0.0341,-0.0868 -0.11162,-0.12712 -0.0775,-0.0434 -0.20154,-0.0434 -0.15813,0 -0.30386,0.0744 -0.14573,0.0744 -0.27595,0.21394 -0.12712,0.13643 -0.23875,0.33487 -0.10852,0.19844 -0.19843,0.44958 l -0.18294,1.5534 z"
         id="path765" /><path
         d="m 151.34594,189.77923 q -0.0496,0.0992 -0.13642,0.14883 -0.0868,0.0527 -0.17363,0.0527 h -0.22015 l 2.52078,-4.42144 q 0.0434,-0.0899 0.12092,-0.13952 0.0806,-0.0527 0.17984,-0.0527 h 0.22324 z"
         id="path767" /><path
         d="m 154.3101,185.80428 q 0.0992,-0.0837 0.21084,-0.16123 0.11473,-0.0775 0.24495,-0.13643 0.13333,-0.0589 0.28215,-0.093 0.14883,-0.0372 0.31626,-0.0372 0.21084,0 0.37828,0.0651 0.17053,0.062 0.28835,0.17363 0.11782,0.10852 0.17983,0.26045 0.0651,0.15193 0.0651,0.32866 0,0.25115 -0.0713,0.42789 -0.0682,0.17673 -0.17673,0.30695 -0.10542,0.12713 -0.23565,0.22325 -0.12712,0.093 -0.24494,0.18293 -0.11782,0.0868 -0.21084,0.18293 -0.0899,0.0961 -0.12092,0.22325 l -0.11473,0.46198 h -0.35966 l 0.0279,-0.49609 q 0.006,-0.14263 0.0837,-0.25115 0.0806,-0.11162 0.19223,-0.20774 0.11472,-0.0992 0.24495,-0.19223 0.13022,-0.093 0.24185,-0.20154 0.11162,-0.10852 0.18293,-0.24185 0.0744,-0.13642 0.0744,-0.31936 0,-0.23254 -0.14262,-0.36277 -0.13953,-0.13332 -0.37827,-0.13332 -0.16744,0 -0.29146,0.0465 -0.12092,0.0434 -0.21084,0.0961 -0.0868,0.0527 -0.14573,0.0992 -0.0558,0.0434 -0.0961,0.0434 -0.0651,0 -0.10231,-0.0682 z m 0.16434,3.57187 q 0,-0.0775 0.0279,-0.14572 0.031,-0.0713 0.0806,-0.12403 0.0527,-0.0527 0.12092,-0.0806 0.0682,-0.031 0.14883,-0.031 0.0775,0 0.14572,0.031 0.0713,0.0279 0.12093,0.0806 0.0527,0.0527 0.0806,0.12403 0.031,0.0682 0.031,0.14572 0,0.0806 -0.031,0.14883 -0.0279,0.0682 -0.0806,0.12092 -0.0496,0.0496 -0.12093,0.0775 -0.0682,0.0279 -0.14572,0.0279 -0.0806,0 -0.14883,-0.0279 -0.0682,-0.0279 -0.12092,-0.0775 -0.0496,-0.0527 -0.0806,-0.12092 -0.0279,-0.0682 -0.0279,-0.14883 z"
         id="path769" /><path
         d="m 156.59524,190.73111 0.49299,-4.05867 h 0.27285 q 0.0899,0 0.13643,0.0465 0.0496,0.0434 0.0434,0.13643 l -0.0496,0.65422 q 0.12093,-0.19844 0.26045,-0.35967 0.14263,-0.16433 0.29766,-0.27905 0.15813,-0.11472 0.32866,-0.17673 0.17053,-0.062 0.34727,-0.062 0.41548,0 0.64182,0.28525 0.22634,0.28215 0.22634,0.83096 0,0.24494 -0.0527,0.48989 -0.0527,0.24494 -0.15193,0.46819 -0.0961,0.22014 -0.23564,0.41237 -0.13953,0.19224 -0.31006,0.33177 -0.17053,0.13952 -0.37207,0.22014 -0.19844,0.0806 -0.41858,0.0806 -0.23564,0 -0.43408,-0.0899 -0.19534,-0.0899 -0.33176,-0.25425 l -0.16123,1.32395 z m 1.92856,-3.66489 q -0.15503,0 -0.31316,0.0899 -0.15503,0.0899 -0.30076,0.25115 -0.14572,0.16123 -0.27285,0.38447 -0.12402,0.22015 -0.21394,0.4837 l -0.093,0.75964 q 0.12403,0.16433 0.29456,0.22944 0.17053,0.0651 0.34727,0.0651 0.25114,0 0.44958,-0.13952 0.20154,-0.13953 0.34106,-0.35967 0.13953,-0.22324 0.21395,-0.49299 0.0775,-0.27285 0.0775,-0.5395 0,-0.35967 -0.13953,-0.54571 -0.13642,-0.18603 -0.39067,-0.18603 z"
         id="path771" /><path
         d="m 162.38713,189.70792 h -0.28526 q -0.10852,0 -0.14572,-0.0527 -0.0372,-0.0558 -0.031,-0.13333 l 0.0558,-0.64492 q -0.11782,0.19844 -0.25425,0.35967 -0.13332,0.16123 -0.28525,0.27595 -0.14883,0.11472 -0.31936,0.17673 -0.16743,0.062 -0.34727,0.062 -0.19843,0 -0.35966,-0.0713 -0.15813,-0.0713 -0.27286,-0.20774 -0.11162,-0.13952 -0.17363,-0.34106 -0.0589,-0.20464 -0.0589,-0.46819 0,-0.26665 0.0713,-0.5209 0.0744,-0.25425 0.20464,-0.47749 0.13333,-0.22634 0.31936,-0.41548 0.18604,-0.18913 0.41238,-0.32556 0.22634,-0.13643 0.48989,-0.21084 0.26355,-0.0775 0.54881,-0.0775 0.20464,0 0.40307,0.031 0.19844,0.0279 0.38448,0.10852 z m -1.41077,-0.40928 q 0.16123,0 0.31626,-0.0899 0.15503,-0.093 0.29146,-0.25735 0.13952,-0.16433 0.25735,-0.38757 0.12092,-0.22324 0.21084,-0.48989 l 0.12402,-1.0201 q -0.0713,-0.0155 -0.14573,-0.0186 -0.0744,-0.006 -0.14573,-0.006 -0.29455,0 -0.555,0.12712 -0.26045,0.12403 -0.45579,0.33797 -0.19533,0.21084 -0.31006,0.48989 -0.11162,0.27905 -0.11162,0.58601 0,0.72864 0.524,0.72864 z"
         id="path773" /><path
         d="m 163.24599,189.70792 0.36587,-3.03548 h 0.26975 q 0.0899,0 0.13643,0.0465 0.0496,0.0434 0.0434,0.13643 l -0.0465,0.68523 q 0.12402,-0.26045 0.26665,-0.44959 0.14263,-0.19223 0.30076,-0.30076 0.15813,-0.10852 0.32866,-0.13332 0.17053,-0.0248 0.34416,0.0465 l -0.0961,0.524 q -0.40617,-0.15813 -0.71313,0.11162 -0.30696,0.26975 -0.5023,0.98288 l -0.16433,1.38597 z"
         id="path775" /><path
         d="m 167.82866,189.70792 h -0.28525 q -0.10852,0 -0.14573,-0.0527 -0.0372,-0.0558 -0.031,-0.13333 l 0.0558,-0.64492 q -0.11782,0.19844 -0.25424,0.35967 -0.13333,0.16123 -0.28526,0.27595 -0.14883,0.11472 -0.31936,0.17673 -0.16743,0.062 -0.34726,0.062 -0.19844,0 -0.35967,-0.0713 -0.15813,-0.0713 -0.27285,-0.20774 -0.11162,-0.13952 -0.17364,-0.34106 -0.0589,-0.20464 -0.0589,-0.46819 0,-0.26665 0.0713,-0.5209 0.0744,-0.25425 0.20463,-0.47749 0.13333,-0.22634 0.31936,-0.41548 0.18604,-0.18913 0.41238,-0.32556 0.22635,-0.13643 0.4899,-0.21084 0.26355,-0.0775 0.5488,-0.0775 0.20464,0 0.40308,0.031 0.19843,0.0279 0.38447,0.10852 z m -1.41077,-0.40928 q 0.16123,0 0.31626,-0.0899 0.15503,-0.093 0.29146,-0.25735 0.13953,-0.16433 0.25735,-0.38757 0.12092,-0.22324 0.21084,-0.48989 l 0.12402,-1.0201 q -0.0713,-0.0155 -0.14573,-0.0186 -0.0744,-0.006 -0.14572,-0.006 -0.29456,0 -0.55501,0.12712 -0.26045,0.12403 -0.45579,0.33797 -0.19533,0.21084 -0.31005,0.48989 -0.11163,0.27905 -0.11163,0.58601 0,0.72864 0.524,0.72864 z"
         id="path777" /><path
         d="m 168.70302,189.70792 0.36277,-3.03548 h 0.26665 q 0.093,0 0.13953,0.0465 0.0496,0.0434 0.0434,0.13643 l -0.0403,0.5643 q 0.23564,-0.38757 0.5271,-0.58601 0.29145,-0.20153 0.61392,-0.20153 0.33486,0 0.48989,0.21394 0.15503,0.21084 0.15503,0.61391 0.23874,-0.42478 0.5426,-0.62632 0.30386,-0.20153 0.64182,-0.20153 0.41858,0 0.59221,0.29765 0.17364,0.29456 0.10542,0.84646 l -0.22944,1.93167 h -0.5364 l 0.22944,-1.93167 q 0.0217,-0.17673 0.0155,-0.30696 -0.003,-0.13022 -0.0434,-0.21704 -0.0372,-0.0868 -0.11473,-0.12712 -0.0775,-0.0434 -0.20153,-0.0434 -0.14263,0 -0.28526,0.0651 -0.13952,0.0651 -0.26975,0.19224 -0.13022,0.12712 -0.24494,0.31626 -0.11163,0.18603 -0.19844,0.43098 l -0.18914,1.62161 h -0.5364 l 0.22634,-1.93167 q 0.0217,-0.17673 0.0186,-0.30696 0,-0.13022 -0.0372,-0.21704 -0.0341,-0.0868 -0.11162,-0.12712 -0.0775,-0.0434 -0.20154,-0.0434 -0.15813,0 -0.30386,0.0744 -0.14572,0.0744 -0.27595,0.21394 -0.12712,0.13643 -0.23874,0.33487 -0.10852,0.19844 -0.19844,0.44958 l -0.18294,1.5534 z"
         id="path779" /><path
         d="m 176.73044,187.25845 q 0,0.63252 -0.13953,1.10071 -0.13952,0.46819 -0.37827,0.77825 -0.23564,0.31006 -0.5519,0.46199 -0.31316,0.15192 -0.66353,0.15192 -0.26665,0 -0.48989,-0.10231 -0.22324,-0.10542 -0.38757,-0.31316 -0.16123,-0.20774 -0.25115,-0.5178 -0.0899,-0.31316 -0.0899,-0.73174 0,-0.63252 0.13643,-1.10071 0.13953,-0.46819 0.37517,-0.77825 0.23875,-0.31005 0.5519,-0.46198 0.31626,-0.15503 0.66663,-0.15503 0.26355,0 0.48679,0.10542 0.22635,0.10232 0.38758,0.31006 0.16433,0.20774 0.25424,0.5209 0.093,0.31315 0.093,0.73173 z m -0.5178,-0.0217 q 0,-0.33176 -0.0589,-0.56431 -0.0589,-0.23254 -0.16123,-0.37827 -0.10232,-0.14883 -0.24184,-0.21394 -0.13643,-0.0682 -0.29456,-0.0682 -0.22014,0 -0.43098,0.11162 -0.20774,0.11162 -0.37207,0.36277 -0.16123,0.24804 -0.26045,0.64802 -0.0992,0.39687 -0.0992,0.97358 0,0.33177 0.0589,0.56431 0.0589,0.23254 0.16123,0.37827 0.10232,0.14573 0.23875,0.21394 0.13642,0.0651 0.29145,0.0651 0.22014,0 0.42788,-0.10852 0.21084,-0.11162 0.37517,-0.35966 0.16434,-0.24805 0.26355,-0.64803 0.10232,-0.39997 0.10232,-0.97668 z"
         id="path781" /><path
         d="m 98.35383,195.93079 h 2.56418 l -0.0465,0.39688 h -2.567289 z m 0.124023,-0.99839 h 2.561087 l -0.0434,0.39688 h -2.567286 z"
         id="path783" /><path
         d="m 101.43271,194.61304 h 0.40308 q 0.062,0 0.10232,0.031 0.0403,0.031 0.0496,0.0837 l 0.31316,1.93167 q 0.0155,0.10542 0.0248,0.20774 0.009,0.0992 0.0155,0.19844 0.0341,-0.0992 0.0744,-0.19844 0.0403,-0.0992 0.0837,-0.20464 l 0.88677,-1.95027 q 0.0186,-0.0434 0.0589,-0.0744 0.0403,-0.031 0.093,-0.031 h 0.22634 q 0.062,0 0.0961,0.031 0.0341,0.0279 0.0403,0.0713 l 0.38137,1.95027 q 0.0186,0.10542 0.0341,0.20774 0.0186,0.0992 0.0279,0.19844 0.0279,-0.0992 0.0589,-0.19534 0.0341,-0.0992 0.0775,-0.20464 l 0.82165,-1.94097 q 0.0186,-0.0465 0.0589,-0.0775 0.0434,-0.0341 0.0961,-0.0341 h 0.39378 l -1.33326,3.03238 h -0.41237 q -0.0744,0 -0.093,-0.10232 l -0.41858,-2.04329 q -0.0186,-0.0961 -0.0279,-0.19534 -0.0155,0.0496 -0.0341,0.0992 -0.0186,0.0496 -0.0403,0.0992 l -0.93948,2.04019 q -0.0434,0.10232 -0.12402,0.10232 h -0.39377 z"
         id="path785" /><path
         d="m 105.98437,197.64542 0.5302,-4.40904 h 0.5426 l -0.24804,2.05569 q 0.24184,-0.35657 0.5395,-0.5395 0.29766,-0.18294 0.60771,-0.18294 0.19844,0 0.35037,0.0775 0.15193,0.0744 0.24495,0.22014 0.0961,0.14573 0.13022,0.35967 0.0341,0.21394 0,0.48679 l -0.22634,1.93167 h -0.5426 l 0.22634,-1.93167 q 0.0434,-0.35657 -0.0465,-0.5271 -0.0899,-0.17053 -0.33486,-0.17053 -0.13953,0 -0.28836,0.0744 -0.14573,0.0713 -0.28215,0.20464 -0.13643,0.13333 -0.26045,0.32556 -0.12092,0.18914 -0.20774,0.42168 l -0.19224,1.60301 z"
         id="path787" /><path
         d="m 109.19658,197.64542 z m 2.40295,-1.46658 h 0.59842 l -0.031,0.28525 q -0.006,0.0434 -0.0403,0.0775 -0.031,0.031 -0.0837,0.031 h -0.493 l -0.13022,1.07281 h -0.43718 l 0.13332,-1.07281 h -1.76113 q -0.0589,0 -0.093,-0.031 -0.0341,-0.0341 -0.0403,-0.0837 l -0.0248,-0.25425 2.25412,-2.63239 h 0.47129 z m -0.22324,-1.69292 q 0.0155,-0.15193 0.0558,-0.32556 l -1.68982,2.01848 h 1.42317 z"
         id="path789" /><path
         d="m 116.28452,195.31688 q 0,0.34416 -0.0744,0.65422 -0.0713,0.30696 -0.20463,0.57051 -0.13333,0.26045 -0.32247,0.47129 -0.18913,0.21084 -0.42478,0.35966 l 0.83406,1.11622 h -0.44338 q -0.0992,0 -0.17674,-0.031 -0.0744,-0.0279 -0.12712,-0.0992 l -0.56121,-0.76584 q -0.15192,0.0465 -0.31315,0.0713 -0.15813,0.0248 -0.32557,0.0248 -0.37517,0 -0.67592,-0.13332 -0.30076,-0.13333 -0.5116,-0.37207 -0.20774,-0.23875 -0.32246,-0.56431 -0.11162,-0.32866 -0.11162,-0.71933 0,-0.5178 0.16123,-0.95188 0.16433,-0.43719 0.44958,-0.75345 0.28526,-0.31626 0.67593,-0.49299 0.39378,-0.17673 0.84956,-0.17673 0.37517,0 0.67593,0.13642 0.30076,0.13333 0.5116,0.37207 0.21084,0.23875 0.32246,0.56741 0.11472,0.32866 0.11472,0.71624 z m -0.56431,0.0124 q 0,-0.30696 -0.0775,-0.55501 -0.0775,-0.25114 -0.22325,-0.42478 -0.14572,-0.17673 -0.35656,-0.27285 -0.20774,-0.0961 -0.47129,-0.0961 -0.33176,0 -0.61082,0.13643 -0.27595,0.13332 -0.47749,0.38447 -0.19843,0.24805 -0.31006,0.60152 -0.11162,0.35036 -0.11162,0.78444 0,0.30696 0.0775,0.55501 0.0775,0.24805 0.22324,0.42478 0.14573,0.17673 0.35347,0.27285 0.21084,0.093 0.47129,0.093 0.33486,0 0.61081,-0.13333 0.27905,-0.13332 0.47749,-0.38137 0.20154,-0.24805 0.31316,-0.59841 0.11162,-0.35347 0.11162,-0.79065 z"
         id="path791" /><path
         d="m 118.71228,195.10294 q -0.0248,0.0341 -0.0496,0.0527 -0.0248,0.0155 -0.0651,0.0155 -0.0434,0 -0.0961,-0.0341 -0.0496,-0.0341 -0.12713,-0.0713 -0.0744,-0.0403 -0.18293,-0.0744 -0.10542,-0.0341 -0.26045,-0.0341 -0.14573,0 -0.26665,0.0372 -0.11782,0.0372 -0.20464,0.10231 -0.0837,0.0651 -0.13332,0.15193 -0.0465,0.0868 -0.0465,0.18294 0,0.10542 0.0558,0.18603 0.0589,0.0775 0.15503,0.14263 0.0961,0.0651 0.21704,0.12092 0.12092,0.0527 0.24804,0.10852 0.12713,0.0527 0.24805,0.11472 0.12092,0.0589 0.21704,0.13643 0.0961,0.0744 0.15193,0.17363 0.0589,0.0961 0.0589,0.22635 0,0.20774 -0.0868,0.39997 -0.0868,0.18914 -0.24805,0.33487 -0.15813,0.14262 -0.38757,0.22944 -0.22945,0.0868 -0.5116,0.0868 -0.30696,0 -0.5426,-0.10231 -0.23255,-0.10232 -0.38138,-0.26665 l 0.13023,-0.20464 q 0.0527,-0.0837 0.14263,-0.0837 0.0496,0 0.0992,0.0434 0.0527,0.0434 0.13023,0.0961 0.0775,0.0496 0.19224,0.093 0.11782,0.0403 0.29765,0.0403 0.15813,0 0.28526,-0.0434 0.12712,-0.0434 0.21394,-0.11782 0.0899,-0.0744 0.13642,-0.17053 0.0465,-0.0992 0.0465,-0.21084 0,-0.15503 -0.0992,-0.25115 -0.0992,-0.0961 -0.25115,-0.16433 -0.14882,-0.0713 -0.32556,-0.13332 -0.17363,-0.062 -0.32556,-0.14263 -0.14883,-0.0837 -0.24805,-0.20464 -0.0992,-0.12402 -0.0992,-0.31626 0,-0.18914 0.0806,-0.36587 0.0806,-0.17983 0.22944,-0.31626 0.15193,-0.13642 0.36587,-0.21704 0.21704,-0.0837 0.48369,-0.0837 0.29146,0 0.5085,0.0899 0.22014,0.0899 0.37827,0.24805 z"
         id="path793" /><path
         d="m 119.98662,194.61304 -0.22945,1.92857 q -0.0434,0.35346 0.0496,0.524 0.093,0.17053 0.33797,0.17053 0.14573,0 0.29765,-0.0744 0.15193,-0.0744 0.29456,-0.21084 0.14263,-0.13952 0.26355,-0.33486 0.12402,-0.19534 0.21084,-0.43718 l 0.18603,-1.5658 h 0.54261 l -0.36587,3.03238 h -0.26975 q -0.20774,0 -0.19224,-0.19534 l 0.0403,-0.55501 q -0.24805,0.39378 -0.56121,0.59532 -0.31316,0.19843 -0.64492,0.19843 -0.19844,0 -0.35037,-0.0775 -0.15192,-0.0775 -0.24804,-0.22324 -0.093,-0.14573 -0.13023,-0.35967 -0.0341,-0.21394 0,-0.48679 l 0.22635,-1.92857 z"
         id="path795" /><path
         d="m 124.44836,195.10294 q -0.0248,0.0341 -0.0496,0.0527 -0.0248,0.0155 -0.0651,0.0155 -0.0434,0 -0.0961,-0.0341 -0.0496,-0.0341 -0.12712,-0.0713 -0.0744,-0.0403 -0.18294,-0.0744 -0.10542,-0.0341 -0.26045,-0.0341 -0.14572,0 -0.26665,0.0372 -0.11782,0.0372 -0.20464,0.10231 -0.0837,0.0651 -0.13332,0.15193 -0.0465,0.0868 -0.0465,0.18294 0,0.10542 0.0558,0.18603 0.0589,0.0775 0.15503,0.14263 0.0961,0.0651 0.21704,0.12092 0.12092,0.0527 0.24805,0.10852 0.12712,0.0527 0.24805,0.11472 0.12092,0.0589 0.21704,0.13643 0.0961,0.0744 0.15192,0.17363 0.0589,0.0961 0.0589,0.22635 0,0.20774 -0.0868,0.39997 -0.0868,0.18914 -0.24805,0.33487 -0.15813,0.14262 -0.38757,0.22944 -0.22944,0.0868 -0.5116,0.0868 -0.30696,0 -0.5426,-0.10231 -0.23254,-0.10232 -0.38137,-0.26665 l 0.13022,-0.20464 q 0.0527,-0.0837 0.14263,-0.0837 0.0496,0 0.0992,0.0434 0.0527,0.0434 0.13022,0.0961 0.0775,0.0496 0.19224,0.093 0.11782,0.0403 0.29766,0.0403 0.15813,0 0.28525,-0.0434 0.12712,-0.0434 0.21394,-0.11782 0.0899,-0.0744 0.13643,-0.17053 0.0465,-0.0992 0.0465,-0.21084 0,-0.15503 -0.0992,-0.25115 -0.0992,-0.0961 -0.25115,-0.16433 -0.14883,-0.0713 -0.32556,-0.13332 -0.17364,-0.062 -0.32556,-0.14263 -0.14883,-0.0837 -0.24805,-0.20464 -0.0992,-0.12402 -0.0992,-0.31626 0,-0.18914 0.0806,-0.36587 0.0806,-0.17983 0.22945,-0.31626 0.15193,-0.13642 0.36587,-0.21704 0.21704,-0.0837 0.48369,-0.0837 0.29145,0 0.50849,0.0899 0.22015,0.0899 0.37828,0.24805 z"
         id="path797" /><path
         d="m 127.00014,193.3139 q 0.24185,0 0.43409,0.0713 0.19223,0.0713 0.32556,0.19534 0.13332,0.12092 0.20464,0.28835 0.0713,0.16743 0.0713,0.35657 l -0.30696,0.0589 q -0.0682,0.0155 -0.10542,-0.003 -0.0372,-0.0217 -0.0527,-0.0899 -0.0186,-0.0837 -0.062,-0.16743 -0.0403,-0.0837 -0.11472,-0.14883 -0.0744,-0.0682 -0.18294,-0.11162 -0.10542,-0.0434 -0.25114,-0.0434 -0.17364,0 -0.31626,0.0558 -0.14263,0.0558 -0.24495,0.15503 -0.0992,0.0961 -0.15503,0.22945 -0.0527,0.13332 -0.0527,0.28835 0,0.34417 0.35037,0.72244 l 1.11311,1.24643 q 0.13952,-0.20153 0.23254,-0.41857 0.0961,-0.21705 0.13953,-0.43409 0.009,-0.0527 0.0372,-0.0868 0.0279,-0.0341 0.0899,-0.0341 h 0.35967 q -0.0434,0.34727 -0.18914,0.68213 -0.14572,0.33176 -0.37827,0.62012 l 0.80615,0.89917 h -0.44958 q -0.0651,0 -0.11472,-0.006 -0.0465,-0.009 -0.0868,-0.0279 -0.0372,-0.0186 -0.0713,-0.0465 -0.031,-0.031 -0.0682,-0.0744 l -0.35656,-0.39068 q -0.31316,0.27285 -0.70384,0.43409 -0.39067,0.15812 -0.83405,0.15812 -0.26975,0 -0.4961,-0.0744 -0.22634,-0.0744 -0.39067,-0.21084 -0.16433,-0.13953 -0.25735,-0.33486 -0.0899,-0.19844 -0.0899,-0.44649 0,-0.23254 0.0868,-0.44028 0.0868,-0.20774 0.23874,-0.38137 0.15503,-0.17674 0.35967,-0.31316 0.20774,-0.13643 0.44649,-0.22944 -0.26665,-0.39068 -0.26665,-0.77825 0,-0.24185 0.093,-0.45579 0.093,-0.21394 0.26355,-0.37207 0.17054,-0.15813 0.40928,-0.24804 0.24185,-0.093 0.5364,-0.093 z m -0.82785,3.95635 q 0.33176,0 0.62321,-0.13023 0.29146,-0.13332 0.5302,-0.35037 l -1.14721,-1.26503 q -0.39688,0.18293 -0.60152,0.44958 -0.20463,0.26665 -0.20463,0.58601 0,0.17053 0.062,0.30386 0.0651,0.13022 0.17363,0.22324 0.10852,0.0899 0.25425,0.13643 0.14573,0.0465 0.31006,0.0465 z"
         id="path799" /><path
         d="m 129.07754,198.66861 0.49299,-4.05867 h 0.27285 q 0.0899,0 0.13643,0.0465 0.0496,0.0434 0.0434,0.13643 l -0.0496,0.65422 q 0.12093,-0.19844 0.26045,-0.35967 0.14263,-0.16433 0.29766,-0.27905 0.15813,-0.11472 0.32866,-0.17673 0.17053,-0.062 0.34727,-0.062 0.41548,0 0.64182,0.28526 0.22634,0.28215 0.22634,0.83096 0,0.24494 -0.0527,0.48989 -0.0527,0.24494 -0.15193,0.46819 -0.0961,0.22014 -0.23564,0.41237 -0.13953,0.19224 -0.31006,0.33177 -0.17053,0.13952 -0.37207,0.22014 -0.19844,0.0806 -0.41858,0.0806 -0.23564,0 -0.43408,-0.0899 -0.19534,-0.0899 -0.33176,-0.25425 l -0.16123,1.32395 z m 1.92856,-3.66489 q -0.15503,0 -0.31316,0.0899 -0.15503,0.0899 -0.30076,0.25115 -0.14572,0.16123 -0.27285,0.38447 -0.12402,0.22015 -0.21394,0.4837 l -0.093,0.75964 q 0.12403,0.16433 0.29456,0.22944 0.17053,0.0651 0.34727,0.0651 0.25114,0 0.44958,-0.13952 0.20154,-0.13953 0.34106,-0.35967 0.13953,-0.22324 0.21395,-0.49299 0.0775,-0.27285 0.0775,-0.5395 0,-0.35967 -0.13953,-0.54571 -0.13642,-0.18603 -0.39067,-0.18603 z"
         id="path801" /><path
         d="m 134.86943,197.64542 h -0.28526 q -0.10852,0 -0.14572,-0.0527 -0.0372,-0.0558 -0.031,-0.13333 l 0.0558,-0.64492 q -0.11782,0.19844 -0.25425,0.35967 -0.13332,0.16123 -0.28525,0.27595 -0.14883,0.11472 -0.31936,0.17673 -0.16743,0.062 -0.34727,0.062 -0.19843,0 -0.35966,-0.0713 -0.15813,-0.0713 -0.27286,-0.20774 -0.11162,-0.13952 -0.17363,-0.34106 -0.0589,-0.20464 -0.0589,-0.46819 0,-0.26665 0.0713,-0.5209 0.0744,-0.25425 0.20464,-0.47749 0.13333,-0.22634 0.31936,-0.41548 0.18604,-0.18913 0.41238,-0.32556 0.22634,-0.13643 0.48989,-0.21084 0.26355,-0.0775 0.54881,-0.0775 0.20464,0 0.40307,0.031 0.19844,0.0279 0.38448,0.10852 z m -1.41077,-0.40928 q 0.16123,0 0.31626,-0.0899 0.15503,-0.093 0.29146,-0.25735 0.13952,-0.16433 0.25735,-0.38757 0.12092,-0.22324 0.21083,-0.48989 l 0.12403,-1.0201 q -0.0713,-0.0155 -0.14573,-0.0186 -0.0744,-0.006 -0.14573,-0.006 -0.29455,0 -0.555,0.12712 -0.26045,0.12403 -0.45579,0.33797 -0.19533,0.21084 -0.31006,0.48989 -0.11162,0.27905 -0.11162,0.58601 0,0.72864 0.524,0.72864 z"
         id="path803" /><path
         d="m 135.72829,197.64542 0.36587,-3.03548 h 0.26975 q 0.0899,0 0.13643,0.0465 0.0496,0.0434 0.0434,0.13643 l -0.0465,0.68523 q 0.12402,-0.26045 0.26665,-0.44959 0.14263,-0.19223 0.30076,-0.30076 0.15813,-0.10852 0.32866,-0.13332 0.17053,-0.0248 0.34416,0.0465 l -0.0961,0.524 q -0.40617,-0.15813 -0.71313,0.11162 -0.30696,0.26975 -0.5023,0.98288 l -0.16433,1.38597 z"
         id="path805" /><path
         d="m 140.31096,197.64542 h -0.28526 q -0.10852,0 -0.14572,-0.0527 -0.0372,-0.0558 -0.031,-0.13333 l 0.0558,-0.64492 q -0.11782,0.19844 -0.25425,0.35967 -0.13332,0.16123 -0.28525,0.27595 -0.14883,0.11472 -0.31936,0.17673 -0.16743,0.062 -0.34727,0.062 -0.19844,0 -0.35967,-0.0713 -0.15813,-0.0713 -0.27285,-0.20774 -0.11162,-0.13952 -0.17363,-0.34106 -0.0589,-0.20464 -0.0589,-0.46819 0,-0.26665 0.0713,-0.5209 0.0744,-0.25425 0.20464,-0.47749 0.13333,-0.22634 0.31936,-0.41548 0.18604,-0.18913 0.41238,-0.32556 0.22634,-0.13643 0.48989,-0.21084 0.26355,-0.0775 0.54881,-0.0775 0.20463,0 0.40307,0.031 0.19844,0.0279 0.38447,0.10852 z m -1.41077,-0.40928 q 0.16123,0 0.31626,-0.0899 0.15503,-0.093 0.29145,-0.25735 0.13953,-0.16433 0.25735,-0.38757 0.12093,-0.22324 0.21084,-0.48989 l 0.12403,-1.0201 q -0.0713,-0.0155 -0.14573,-0.0186 -0.0744,-0.006 -0.14573,-0.006 -0.29455,0 -0.555,0.12712 -0.26045,0.12403 -0.45579,0.33797 -0.19534,0.21084 -0.31006,0.48989 -0.11162,0.27905 -0.11162,0.58601 0,0.72864 0.524,0.72864 z"
         id="path807" /><path
         d="m 141.18532,197.64542 0.36277,-3.03548 h 0.26665 q 0.093,0 0.13953,0.0465 0.0496,0.0434 0.0434,0.13643 l -0.0403,0.5643 q 0.23564,-0.38757 0.5271,-0.58601 0.29145,-0.20154 0.61392,-0.20154 0.33486,0 0.48989,0.21395 0.15503,0.21084 0.15503,0.61391 0.23874,-0.42478 0.5426,-0.62632 0.30386,-0.20154 0.64182,-0.20154 0.41858,0 0.59221,0.29766 0.17364,0.29456 0.10542,0.84646 l -0.22944,1.93167 h -0.5364 l 0.22944,-1.93167 q 0.0217,-0.17673 0.0155,-0.30696 -0.003,-0.13022 -0.0434,-0.21704 -0.0372,-0.0868 -0.11473,-0.12712 -0.0775,-0.0434 -0.20153,-0.0434 -0.14263,0 -0.28526,0.0651 -0.13952,0.0651 -0.26975,0.19224 -0.13022,0.12712 -0.24494,0.31626 -0.11163,0.18603 -0.19844,0.43098 l -0.18914,1.62161 h -0.5364 l 0.22634,-1.93167 q 0.0217,-0.17673 0.0186,-0.30696 0,-0.13022 -0.0372,-0.21704 -0.0341,-0.0868 -0.11162,-0.12712 -0.0775,-0.0434 -0.20154,-0.0434 -0.15813,0 -0.30386,0.0744 -0.14572,0.0744 -0.27595,0.21394 -0.12712,0.13643 -0.23874,0.33487 -0.10852,0.19844 -0.19844,0.44958 l -0.18294,1.5534 z"
         id="path809" /><path
         d="m 146.71677,197.26404 h 0.85886 l 0.34417,-2.79362 q 0.006,-0.062 0.0155,-0.12093 0.009,-0.062 0.0217,-0.12712 l -0.78444,0.62012 q -0.0372,0.031 -0.0744,0.0403 -0.0372,0.009 -0.0682,0.003 -0.031,-0.006 -0.0558,-0.0217 -0.0217,-0.0186 -0.0341,-0.0372 l -0.13332,-0.21394 1.31464,-1.0511 h 0.40928 l -0.45268,3.7021 h 0.77514 l -0.0434,0.38138 h -2.1363 z"
         id="path811" /><path
         d="m 149.5073,195.93079 h 2.56418 l -0.0465,0.39688 h -2.56728 z m 0.12402,-0.99839 h 2.56108 l -0.0434,0.39688 h -2.56728 z"
         id="path813" /><path
         d="m 152.54897,197.64542 z m 1.88826,-4.11758 q 0.23254,0 0.42788,0.0682 0.19533,0.0682 0.33796,0.19534 0.14263,0.12712 0.22014,0.31006 0.0806,0.18293 0.0806,0.41547 0,0.25735 -0.0806,0.47439 -0.0806,0.21395 -0.22014,0.40618 -0.13952,0.19224 -0.32556,0.37207 -0.18293,0.17984 -0.38757,0.36897 l -1.18753,1.10071 q 0.11782,-0.031 0.23565,-0.0496 0.11782,-0.0186 0.22634,-0.0186 h 1.31775 q 0.0806,0 0.12092,0.0496 0.0434,0.0465 0.0372,0.12402 l -0.0372,0.30076 h -2.6541 l 0.0217,-0.17054 q 0.006,-0.0527 0.0341,-0.10852 0.031,-0.0589 0.0837,-0.10542 l 1.42937,-1.31464 q 0.20153,-0.18604 0.35966,-0.35037 0.16123,-0.16743 0.27286,-0.33176 0.11162,-0.16433 0.17053,-0.33487 0.062,-0.17053 0.062,-0.36897 0,-0.14882 -0.0465,-0.26045 -0.0465,-0.11472 -0.13022,-0.18913 -0.0837,-0.0775 -0.19844,-0.11472 -0.11472,-0.0403 -0.24805,-0.0403 -0.14883,0 -0.28215,0.0465 -0.13023,0.0465 -0.23875,0.12712 -0.10542,0.0806 -0.18603,0.19224 -0.0806,0.11162 -0.13023,0.24494 -0.0372,0.10232 -0.10232,0.13643 -0.0651,0.031 -0.16433,0.0155 l -0.26355,-0.0434 q 0.0744,-0.27905 0.21394,-0.49299 0.13953,-0.21704 0.32557,-0.35967 0.18913,-0.14572 0.41857,-0.22014 0.22945,-0.0744 0.4868,-0.0744 z"
         id="path815" /><path
         d="m 155.76428,197.64542 z m 2.40295,-1.46658 h 0.59841 l -0.031,0.28525 q -0.006,0.0434 -0.0403,0.0775 -0.031,0.031 -0.0837,0.031 h -0.49299 l -0.13022,1.07281 h -0.43719 l 0.13333,-1.07281 h -1.76113 q -0.0589,0 -0.093,-0.031 -0.0341,-0.0341 -0.0403,-0.0837 l -0.0248,-0.25425 2.25412,-2.63239 h 0.47129 z m -0.22324,-1.69292 q 0.0155,-0.15193 0.0558,-0.32556 l -1.68982,2.01848 h 1.42317 z"
         id="path817" /><path
         d="m 159.0726,197.64542 z m 0.76585,-0.33177 q 0,0.0775 -0.031,0.14883 -0.031,0.0682 -0.0868,0.12092 -0.0527,0.0496 -0.12403,0.0806 -0.0682,0.031 -0.14572,0.031 -0.0775,0 -0.14573,-0.031 -0.0682,-0.031 -0.12093,-0.0806 -0.0496,-0.0527 -0.0806,-0.12092 -0.031,-0.0713 -0.031,-0.14883 0,-0.0806 0.031,-0.14882 0.031,-0.0713 0.0806,-0.12403 0.0527,-0.0527 0.12093,-0.0837 0.0682,-0.031 0.14573,-0.031 0.0775,0 0.14882,0.031 0.0713,0.031 0.12403,0.0837 0.0527,0.0527 0.0837,0.12403 0.031,0.0682 0.031,0.14882 z"
         id="path819" /><path
         d="m 160.58879,197.64542 z m 1.88825,-4.11758 q 0.23255,0 0.42789,0.0682 0.19533,0.0682 0.33796,0.19534 0.14263,0.12712 0.22014,0.31006 0.0806,0.18293 0.0806,0.41547 0,0.25735 -0.0806,0.47439 -0.0806,0.21395 -0.22014,0.40618 -0.13953,0.19224 -0.32556,0.37207 -0.18294,0.17984 -0.38758,0.36897 l -1.18752,1.10071 q 0.11782,-0.031 0.23564,-0.0496 0.11783,-0.0186 0.22635,-0.0186 h 1.31775 q 0.0806,0 0.12092,0.0496 0.0434,0.0465 0.0372,0.12402 l -0.0372,0.30076 h -2.6541 l 0.0217,-0.17054 q 0.006,-0.0527 0.0341,-0.10852 0.031,-0.0589 0.0837,-0.10542 l 1.42937,-1.31464 q 0.20154,-0.18604 0.35967,-0.35037 0.16123,-0.16743 0.27285,-0.33176 0.11162,-0.16433 0.17054,-0.33487 0.062,-0.17053 0.062,-0.36897 0,-0.14882 -0.0465,-0.26045 -0.0465,-0.11472 -0.13023,-0.18913 -0.0837,-0.0775 -0.19843,-0.11472 -0.11472,-0.0403 -0.24805,-0.0403 -0.14883,0 -0.28215,0.0465 -0.13023,0.0465 -0.23875,0.12712 -0.10542,0.0806 -0.18603,0.19224 -0.0806,0.11162 -0.13023,0.24494 -0.0372,0.10232 -0.10232,0.13643 -0.0651,0.031 -0.16433,0.0155 l -0.26355,-0.0434 q 0.0744,-0.27905 0.21394,-0.49299 0.13953,-0.21704 0.32556,-0.35967 0.18914,-0.14572 0.41858,-0.22014 0.22945,-0.0744 0.48679,-0.0744 z"
         id="path821" /><path
         d="m 163.80409,197.64542 z m 2.40296,-1.46658 h 0.59841 l -0.031,0.28525 q -0.006,0.0434 -0.0403,0.0775 -0.031,0.031 -0.0837,0.031 h -0.49299 l -0.13023,1.07281 h -0.43718 l 0.13333,-1.07281 h -1.76114 q -0.0589,0 -0.093,-0.031 -0.0341,-0.0341 -0.0403,-0.0837 l -0.0248,-0.25425 2.25413,-2.63239 h 0.47129 z m -0.22324,-1.69292 q 0.0155,-0.15193 0.0558,-0.32556 l -1.68982,2.01848 h 1.42317 z"
         id="path823" /><path
         d="m 167.15893,197.64542 z m 1.80144,-4.11758 q 0.23565,0 0.42789,0.0682 0.19223,0.0651 0.32866,0.18604 0.13642,0.12092 0.21084,0.29145 0.0775,0.16743 0.0775,0.37517 0,0.22324 -0.0589,0.39998 -0.0589,0.17363 -0.16743,0.30386 -0.10542,0.12712 -0.25735,0.21704 -0.14883,0.0868 -0.33486,0.13952 0.33796,0.0961 0.50539,0.31316 0.17053,0.21394 0.17053,0.5271 0,0.30696 -0.12092,0.55501 -0.12092,0.24804 -0.32556,0.42478 -0.20464,0.17363 -0.47439,0.26665 -0.26665,0.093 -0.56121,0.093 -0.31625,0 -0.5333,-0.0806 -0.21394,-0.0806 -0.35346,-0.22014 -0.13953,-0.14263 -0.21704,-0.33487 -0.0775,-0.19533 -0.11783,-0.42168 l 0.22945,-0.0899 q 0.0899,-0.0341 0.16433,-0.0217 0.0775,0.0124 0.10542,0.0899 0.0279,0.0775 0.0682,0.18914 0.0403,0.11162 0.12092,0.21704 0.0806,0.10232 0.21705,0.17673 0.13642,0.0713 0.35656,0.0713 0.22324,0 0.39688,-0.0775 0.17363,-0.0806 0.29455,-0.21084 0.12093,-0.13023 0.18294,-0.29146 0.062,-0.16433 0.062,-0.33176 0,-0.13022 -0.0465,-0.24184 -0.0434,-0.11473 -0.15193,-0.19534 -0.10542,-0.0806 -0.28525,-0.12712 -0.17984,-0.0496 -0.44649,-0.0496 l 0.0403,-0.36277 q 0.5302,-0.009 0.78445,-0.22635 0.25425,-0.21704 0.25425,-0.60771 0,-0.14573 -0.0465,-0.25425 -0.0465,-0.11162 -0.13023,-0.18293 -0.0806,-0.0744 -0.19533,-0.11162 -0.11472,-0.0372 -0.25115,-0.0372 -0.14883,0 -0.28215,0.0465 -0.13023,0.0465 -0.23875,0.12712 -0.10542,0.0806 -0.18913,0.19224 -0.0806,0.11162 -0.13023,0.24494 -0.0372,0.10232 -0.0992,0.13643 -0.062,0.0341 -0.16433,0.0155 l -0.25735,-0.0434 q 0.0744,-0.27905 0.21084,-0.49299 0.13953,-0.21704 0.32556,-0.35967 0.18914,-0.14572 0.41548,-0.22014 0.22945,-0.0744 0.48679,-0.0744 z"
         id="path825" /><path
         d="m 172.40202,193.3139 q 0.24185,0 0.43409,0.0713 0.19223,0.0713 0.32556,0.19534 0.13332,0.12092 0.20464,0.28835 0.0713,0.16743 0.0713,0.35657 l -0.30696,0.0589 q -0.0682,0.0155 -0.10542,-0.003 -0.0372,-0.0217 -0.0527,-0.0899 -0.0186,-0.0837 -0.062,-0.16743 -0.0403,-0.0837 -0.11472,-0.14883 -0.0744,-0.0682 -0.18294,-0.11162 -0.10542,-0.0434 -0.25114,-0.0434 -0.17364,0 -0.31626,0.0558 -0.14263,0.0558 -0.24495,0.15503 -0.0992,0.0961 -0.15503,0.22945 -0.0527,0.13332 -0.0527,0.28835 0,0.34417 0.35037,0.72244 l 1.11311,1.24643 q 0.13952,-0.20153 0.23254,-0.41857 0.0961,-0.21705 0.13953,-0.43409 0.009,-0.0527 0.0372,-0.0868 0.0279,-0.0341 0.0899,-0.0341 h 0.35967 q -0.0434,0.34727 -0.18914,0.68213 -0.14572,0.33176 -0.37827,0.62012 l 0.80615,0.89917 h -0.44958 q -0.0651,0 -0.11472,-0.006 -0.0465,-0.009 -0.0868,-0.0279 -0.0372,-0.0186 -0.0713,-0.0465 -0.031,-0.031 -0.0682,-0.0744 l -0.35656,-0.39068 q -0.31316,0.27285 -0.70384,0.43409 -0.39067,0.15812 -0.83405,0.15812 -0.26975,0 -0.4961,-0.0744 -0.22634,-0.0744 -0.39067,-0.21084 -0.16433,-0.13953 -0.25735,-0.33486 -0.0899,-0.19844 -0.0899,-0.44649 0,-0.23254 0.0868,-0.44028 0.0868,-0.20774 0.23875,-0.38137 0.15502,-0.17674 0.35966,-0.31316 0.20774,-0.13643 0.44649,-0.22944 -0.26665,-0.39068 -0.26665,-0.77825 0,-0.24185 0.093,-0.45579 0.093,-0.21394 0.26355,-0.37207 0.17054,-0.15813 0.40928,-0.24804 0.24185,-0.093 0.5364,-0.093 z m -0.82785,3.95635 q 0.33176,0 0.62321,-0.13023 0.29146,-0.13332 0.5302,-0.35037 l -1.14721,-1.26503 q -0.39688,0.18293 -0.60152,0.44958 -0.20463,0.26665 -0.20463,0.58601 0,0.17053 0.062,0.30386 0.0651,0.13022 0.17363,0.22324 0.10852,0.0899 0.25425,0.13643 0.14573,0.0465 0.31006,0.0465 z"
         id="path827" /><path
         d="m 98.136789,206.60611 0.492993,-4.05867 h 0.272852 q 0.08992,0 0.136425,0.0465 0.04961,0.0434 0.04341,0.13643 l -0.04961,0.65422 q 0.120923,-0.19844 0.260449,-0.35967 0.142627,-0.16433 0.297657,-0.27905 0.15813,-0.11472 0.328662,-0.17673 0.170533,-0.062 0.347263,-0.062 0.41548,0 0.64182,0.28526 0.22635,0.28215 0.22635,0.83096 0,0.24494 -0.0527,0.48989 -0.0527,0.24494 -0.15193,0.46819 -0.0961,0.22014 -0.23565,0.41237 -0.13952,0.19224 -0.31006,0.33177 -0.17053,0.13952 -0.37207,0.22014 -0.198433,0.0806 -0.418575,0.0806 -0.235644,0 -0.434082,-0.0899 -0.195337,-0.0899 -0.331762,-0.25425 L 98.667,206.60612 Z m 1.928561,-3.66489 q -0.155026,0 -0.313156,0.0899 -0.155029,0.0899 -0.300757,0.25115 -0.145727,0.16123 -0.272851,0.38447 -0.124024,0.22015 -0.213941,0.4837 l -0.09302,0.75964 q 0.124023,0.16433 0.294555,0.22944 0.170533,0.0651 0.347266,0.0651 0.251148,0 0.449585,-0.13952 0.201539,-0.13953 0.341069,-0.35967 0.13952,-0.22324 0.21394,-0.49299 0.0775,-0.27285 0.0775,-0.5395 0,-0.35967 -0.13952,-0.54571 -0.13643,-0.18603 -0.39068,-0.18603 z"
         id="path829" /><path
         d="m 103.92868,205.58292 h -0.28525 q -0.10852,0 -0.14573,-0.0527 -0.0372,-0.0558 -0.031,-0.13333 l 0.0558,-0.64492 q -0.11783,0.19844 -0.25425,0.35967 -0.13333,0.16123 -0.28526,0.27595 -0.14882,0.11472 -0.31936,0.17673 -0.16743,0.062 -0.34726,0.062 -0.19844,0 -0.35967,-0.0713 -0.15813,-0.0713 -0.27285,-0.20774 -0.11162,-0.13952 -0.17363,-0.34106 -0.0589,-0.20464 -0.0589,-0.46819 0,-0.26665 0.0713,-0.5209 0.0744,-0.25425 0.20464,-0.47749 0.13332,-0.22634 0.31936,-0.41548 0.18603,-0.18913 0.41238,-0.32556 0.22634,-0.13643 0.48989,-0.21084 0.26355,-0.0775 0.5488,-0.0775 0.20464,0 0.40308,0.031 0.19844,0.0279 0.38447,0.10852 z m -1.41076,-0.40928 q 0.16123,0 0.31626,-0.0899 0.15503,-0.093 0.29145,-0.25735 0.13953,-0.16433 0.25735,-0.38757 0.12092,-0.22324 0.21084,-0.48989 l 0.12402,-1.0201 q -0.0713,-0.0155 -0.14572,-0.0186 -0.0744,-0.006 -0.14573,-0.006 -0.29456,0 -0.55501,0.12712 -0.26045,0.12403 -0.45578,0.33797 -0.19534,0.21084 -0.31006,0.48989 -0.11162,0.27905 -0.11162,0.58601 0,0.72864 0.524,0.72864 z"
         id="path831" /><path
         d="m 104.78755,205.58292 0.36586,-3.03548 h 0.26976 q 0.0899,0 0.13642,0.0465 0.0496,0.0434 0.0434,0.13643 l -0.0465,0.68523 q 0.12402,-0.26045 0.26665,-0.44959 0.14263,-0.19223 0.30076,-0.30076 0.15813,-0.10852 0.32866,-0.13332 0.17053,-0.0248 0.34417,0.0465 l -0.0961,0.524 q -0.40618,-0.15813 -0.71314,0.11162 -0.30696,0.26975 -0.50229,0.98288 l -0.16433,1.38597 z"
         id="path833" /><path
         d="m 109.37021,205.58292 h -0.28525 q -0.10852,0 -0.14573,-0.0527 -0.0372,-0.0558 -0.031,-0.13333 l 0.0558,-0.64492 q -0.11782,0.19844 -0.25424,0.35967 -0.13333,0.16123 -0.28526,0.27595 -0.14883,0.11472 -0.31936,0.17673 -0.16743,0.062 -0.34726,0.062 -0.19844,0 -0.35967,-0.0713 -0.15813,-0.0713 -0.27285,-0.20774 -0.11162,-0.13952 -0.17364,-0.34106 -0.0589,-0.20464 -0.0589,-0.46819 0,-0.26665 0.0713,-0.5209 0.0744,-0.25425 0.20464,-0.47749 0.13332,-0.22634 0.31936,-0.41548 0.18603,-0.18913 0.41237,-0.32556 0.22635,-0.13643 0.4899,-0.21084 0.26355,-0.0775 0.5488,-0.0775 0.20464,0 0.40308,0.031 0.19843,0.0279 0.38447,0.10852 z m -1.41077,-0.40928 q 0.16124,0 0.31626,-0.0899 0.15503,-0.093 0.29146,-0.25735 0.13953,-0.16433 0.25735,-0.38757 0.12092,-0.22324 0.21084,-0.48989 l 0.12402,-1.0201 q -0.0713,-0.0155 -0.14573,-0.0186 -0.0744,-0.006 -0.14572,-0.006 -0.29456,0 -0.55501,0.12712 -0.26045,0.12403 -0.45578,0.33797 -0.19534,0.21084 -0.31006,0.48989 -0.11162,0.27905 -0.11162,0.58601 0,0.72864 0.52399,0.72864 z"
         id="path835" /><path
         d="m 110.24458,205.58292 0.36277,-3.03548 h 0.26665 q 0.093,0 0.13952,0.0465 0.0496,0.0434 0.0434,0.13643 l -0.0403,0.5643 q 0.23565,-0.38757 0.5271,-0.58601 0.29146,-0.20154 0.61392,-0.20154 0.33486,0 0.48989,0.21395 0.15503,0.21084 0.15503,0.61391 0.23875,-0.42478 0.5426,-0.62632 0.30386,-0.20154 0.64182,-0.20154 0.41858,0 0.59222,0.29766 0.17363,0.29456 0.10542,0.84646 l -0.22945,1.93167 h -0.5364 l 0.22944,-1.93167 q 0.0217,-0.17673 0.0155,-0.30696 -0.003,-0.13022 -0.0434,-0.21704 -0.0372,-0.0868 -0.11472,-0.12712 -0.0775,-0.0434 -0.20154,-0.0434 -0.14263,0 -0.28525,0.0651 -0.13953,0.0651 -0.26976,0.19224 -0.13022,0.12712 -0.24494,0.31626 -0.11162,0.18603 -0.19844,0.43098 l -0.18913,1.62161 h -0.53641 l 0.22635,-1.93167 q 0.0217,-0.17673 0.0186,-0.30696 0,-0.13022 -0.0372,-0.21704 -0.0341,-0.0868 -0.11162,-0.12712 -0.0775,-0.0434 -0.20154,-0.0434 -0.15813,0 -0.30385,0.0744 -0.14573,0.0744 -0.27596,0.21394 -0.12712,0.13643 -0.23874,0.33487 -0.10852,0.19844 -0.19844,0.44958 l -0.18293,1.5534 z"
         id="path837" /><path
         d="m 115.22722,205.58292 z m 1.88825,-4.11758 q 0.23255,0 0.42789,0.0682 0.19533,0.0682 0.33796,0.19534 0.14263,0.12712 0.22014,0.31006 0.0806,0.18293 0.0806,0.41547 0,0.25735 -0.0806,0.47439 -0.0806,0.21394 -0.22014,0.40618 -0.13953,0.19224 -0.32556,0.37207 -0.18294,0.17984 -0.38758,0.36897 l -1.18752,1.10071 q 0.11782,-0.031 0.23564,-0.0496 0.11783,-0.0186 0.22635,-0.0186 h 1.31775 q 0.0806,0 0.12092,0.0496 0.0434,0.0465 0.0372,0.12402 l -0.0372,0.30076 h -2.6541 l 0.0217,-0.17054 q 0.006,-0.0527 0.0341,-0.10852 0.031,-0.0589 0.0837,-0.10542 l 1.42937,-1.31465 q 0.20154,-0.18603 0.35967,-0.35036 0.16123,-0.16743 0.27285,-0.33176 0.11162,-0.16433 0.17054,-0.33487 0.062,-0.17053 0.062,-0.36897 0,-0.14883 -0.0465,-0.26045 -0.0465,-0.11472 -0.13023,-0.18913 -0.0837,-0.0775 -0.19843,-0.11472 -0.11473,-0.0403 -0.24805,-0.0403 -0.14883,0 -0.28215,0.0465 -0.13023,0.0465 -0.23875,0.12712 -0.10542,0.0806 -0.18603,0.19224 -0.0806,0.11162 -0.13023,0.24494 -0.0372,0.10232 -0.10232,0.13643 -0.0651,0.031 -0.16433,0.0155 l -0.26355,-0.0434 q 0.0744,-0.27905 0.21394,-0.49299 0.13953,-0.21704 0.32556,-0.35967 0.18914,-0.14572 0.41858,-0.22014 0.22945,-0.0744 0.48679,-0.0744 z"
         id="path839" /><path
         d="m 118.56655,203.86829 h 2.56418 l -0.0465,0.39688 h -2.56728 z m 0.12402,-0.99839 h 2.56109 l -0.0434,0.39688 h -2.56729 z"
         id="path841" /><path
         d="m 122.06711,205.58292 z m 1.50999,-1.62471 q 0.0713,-0.0806 0.13332,-0.15503 0.0651,-0.0775 0.12092,-0.14883 -0.16743,0.12713 -0.36897,0.19224 -0.20153,0.0651 -0.41858,0.0651 -0.20153,0 -0.38137,-0.0682 -0.17673,-0.0713 -0.31006,-0.20154 -0.13332,-0.13023 -0.21084,-0.31936 -0.0744,-0.18914 -0.0744,-0.42788 0,-0.29766 0.11472,-0.55811 0.11472,-0.26355 0.31316,-0.45578 0.20154,-0.19224 0.47129,-0.30386 0.27285,-0.11162 0.58601,-0.11162 0.26045,0 0.46819,0.0837 0.21084,0.0837 0.35347,0.23565 0.14572,0.14883 0.22324,0.35967 0.0775,0.21084 0.0775,0.46198 0,0.20464 -0.0434,0.38448 -0.0403,0.17673 -0.12402,0.34726 -0.0806,0.16743 -0.19844,0.33797 -0.11782,0.16743 -0.26665,0.35346 l -1.14411,1.43557 q -0.0403,0.0527 -0.11162,0.0868 -0.0713,0.031 -0.15813,0.031 h -0.45889 z m 0.62011,-1.35806 q 0,-0.16123 -0.0527,-0.29455 -0.0496,-0.13333 -0.14262,-0.22635 -0.0899,-0.0961 -0.22015,-0.14572 -0.12712,-0.0527 -0.28215,-0.0527 -0.20154,0 -0.37207,0.0713 -0.16743,0.0682 -0.29145,0.19534 -0.12093,0.12712 -0.19224,0.30385 -0.0682,0.17364 -0.0682,0.38758 0,0.31936 0.17983,0.50229 0.18294,0.18294 0.5054,0.18294 0.21394,0 0.38757,-0.0744 0.17363,-0.0775 0.29455,-0.20464 0.12403,-0.12712 0.18914,-0.29455 0.0651,-0.16743 0.0651,-0.35037 z"
         id="path843" /><path
         d="m 126.14438,205.62942 q -0.27595,0 -0.50229,-0.0744 -0.22325,-0.0775 -0.38138,-0.21704 -0.15813,-0.13953 -0.24494,-0.33486 -0.0837,-0.19844 -0.0837,-0.44339 0,-0.48059 0.23565,-0.78755 0.23874,-0.31005 0.68833,-0.42788 -0.26975,-0.11472 -0.40308,-0.32866 -0.13332,-0.21394 -0.13332,-0.50539 0,-0.26665 0.10231,-0.4961 0.10232,-0.23254 0.28216,-0.39997 0.18293,-0.17054 0.43098,-0.26665 0.25115,-0.0992 0.5457,-0.0992 0.25115,0 0.44959,0.0775 0.20154,0.0775 0.34106,0.21394 0.13953,0.13333 0.21394,0.31626 0.0744,0.18294 0.0744,0.39068 0,0.39687 -0.19844,0.68523 -0.19534,0.28525 -0.57051,0.41857 0.32246,0.10232 0.49299,0.33177 0.17054,0.22634 0.17054,0.57361 0,0.31626 -0.11473,0.5705 -0.11162,0.25425 -0.31625,0.43409 -0.20154,0.17673 -0.4775,0.27285 -0.27595,0.0961 -0.60151,0.0961 z m 0.0496,-0.41547 q 0.21084,0 0.37827,-0.0682 0.17053,-0.0713 0.28836,-0.19843 0.12092,-0.12713 0.18603,-0.30386 0.0651,-0.17673 0.0651,-0.39068 0,-0.18293 -0.0589,-0.31005 -0.0589,-0.13023 -0.15813,-0.21084 -0.0992,-0.0837 -0.22944,-0.12093 -0.12712,-0.0403 -0.26975,-0.0403 -0.16743,0 -0.33176,0.0496 -0.16433,0.0496 -0.29456,0.16123 -0.13022,0.11162 -0.21084,0.29455 -0.0806,0.18294 -0.0806,0.44649 0,0.15192 0.0465,0.27905 0.0496,0.12712 0.13953,0.22014 0.0899,0.0899 0.22324,0.14263 0.13333,0.0496 0.30696,0.0496 z m 0.25115,-2.06499 q 0.19844,0 0.34726,-0.0682 0.15193,-0.0713 0.25115,-0.18913 0.10232,-0.12093 0.15193,-0.27906 0.0496,-0.15813 0.0496,-0.33486 0,-0.13022 -0.0372,-0.24184 -0.0372,-0.11473 -0.11472,-0.19844 -0.0775,-0.0868 -0.19224,-0.13643 -0.11472,-0.0496 -0.26975,-0.0496 -0.19533,0 -0.34416,0.0682 -0.14883,0.0682 -0.25115,0.18603 -0.10232,0.11782 -0.15503,0.27595 -0.0496,0.15503 -0.0496,0.33177 0,0.12402 0.0341,0.23874 0.0341,0.11472 0.10852,0.20464 0.0744,0.0868 0.18913,0.13953 0.11783,0.0527 0.28216,0.0527 z"
         id="path845" /><path
         d="m 128.13186,205.58292 z m 0.76584,-0.33177 q 0,0.0775 -0.031,0.14883 -0.031,0.0682 -0.0868,0.12092 -0.0527,0.0496 -0.12402,0.0806 -0.0682,0.031 -0.14573,0.031 -0.0775,0 -0.14573,-0.031 -0.0682,-0.031 -0.12092,-0.0806 -0.0496,-0.0527 -0.0806,-0.12092 -0.031,-0.0713 -0.031,-0.14883 0,-0.0806 0.031,-0.14882 0.031,-0.0713 0.0806,-0.12403 0.0527,-0.0527 0.12092,-0.0837 0.0682,-0.031 0.14573,-0.031 0.0775,0 0.14883,0.031 0.0713,0.031 0.12402,0.0837 0.0527,0.0527 0.0837,0.12403 0.031,0.0682 0.031,0.14882 z"
         id="path847" /><path
         d="m 129.64804,205.58292 z m 1.88826,-4.11758 q 0.23254,0 0.42788,0.0682 0.19534,0.0682 0.33796,0.19534 0.14263,0.12712 0.22015,0.31006 0.0806,0.18293 0.0806,0.41547 0,0.25735 -0.0806,0.47439 -0.0806,0.21394 -0.22015,0.40618 -0.13952,0.19224 -0.32556,0.37207 -0.18293,0.17984 -0.38757,0.36897 l -1.18752,1.10071 q 0.11782,-0.031 0.23564,-0.0496 0.11782,-0.0186 0.22634,-0.0186 h 1.31775 q 0.0806,0 0.12092,0.0496 0.0434,0.0465 0.0372,0.12402 l -0.0372,0.30076 h -2.6541 l 0.0217,-0.17054 q 0.006,-0.0527 0.0341,-0.10852 0.031,-0.0589 0.0837,-0.10542 l 1.42937,-1.31465 q 0.20154,-0.18603 0.35967,-0.35036 0.16123,-0.16743 0.27285,-0.33176 0.11162,-0.16433 0.17053,-0.33487 0.062,-0.17053 0.062,-0.36897 0,-0.14883 -0.0465,-0.26045 -0.0465,-0.11472 -0.13022,-0.18913 -0.0837,-0.0775 -0.19844,-0.11472 -0.11472,-0.0403 -0.24804,-0.0403 -0.14883,0 -0.28216,0.0465 -0.13022,0.0465 -0.23874,0.12712 -0.10542,0.0806 -0.18604,0.19224 -0.0806,0.11162 -0.13022,0.24494 -0.0372,0.10232 -0.10232,0.13643 -0.0651,0.031 -0.16433,0.0155 l -0.26355,-0.0434 q 0.0744,-0.27905 0.21394,-0.49299 0.13952,-0.21704 0.32556,-0.35967 0.18913,-0.14572 0.41858,-0.22014 0.22944,-0.0744 0.48679,-0.0744 z"
         id="path849" /><path
         d="m 132.86335,205.58292 z m 2.40296,-1.46658 h 0.59841 l -0.031,0.28525 q -0.006,0.0434 -0.0403,0.0775 -0.031,0.031 -0.0837,0.031 h -0.49299 l -0.13023,1.07281 h -0.43718 l 0.13332,-1.07281 h -1.76113 q -0.0589,0 -0.093,-0.031 -0.0341,-0.0341 -0.0403,-0.0837 l -0.0248,-0.25425 2.25413,-2.63239 h 0.47129 z m -0.22325,-1.69292 q 0.0155,-0.15193 0.0558,-0.32556 l -1.68982,2.01848 h 1.42317 z"
         id="path851" /><path
         d="m 139.12963,203.13345 q 0,0.63252 -0.13952,1.10071 -0.13953,0.46819 -0.37827,0.77825 -0.23565,0.31006 -0.55191,0.46199 -0.31316,0.15192 -0.66352,0.15192 -0.26665,0 -0.4899,-0.10232 -0.22324,-0.10542 -0.38757,-0.31315 -0.16123,-0.20774 -0.25115,-0.5178 -0.0899,-0.31316 -0.0899,-0.73174 0,-0.63252 0.13642,-1.10071 0.13953,-0.46819 0.37517,-0.77825 0.23875,-0.31005 0.55191,-0.46198 0.31626,-0.15503 0.66662,-0.15503 0.26355,0 0.4868,0.10542 0.22634,0.10232 0.38757,0.31006 0.16433,0.20774 0.25425,0.52089 0.093,0.31316 0.093,0.73174 z m -0.51779,-0.0217 q 0,-0.33176 -0.0589,-0.56431 -0.0589,-0.23254 -0.16124,-0.37827 -0.10231,-0.14883 -0.24184,-0.21394 -0.13643,-0.0682 -0.29456,-0.0682 -0.22014,0 -0.43098,0.11162 -0.20774,0.11162 -0.37207,0.36277 -0.16123,0.24804 -0.26045,0.64802 -0.0992,0.39687 -0.0992,0.97358 0,0.33177 0.0589,0.56431 0.0589,0.23254 0.16124,0.37827 0.10231,0.14573 0.23874,0.21394 0.13643,0.0651 0.29146,0.0651 0.22014,0 0.42788,-0.10852 0.21084,-0.11162 0.37517,-0.35966 0.16433,-0.24805 0.26355,-0.64803 0.10232,-0.39997 0.10232,-0.97668 z"
         id="path853" /><path
         d="m 139.30017,205.58292 z m 2.40295,-1.46658 h 0.59842 l -0.031,0.28525 q -0.006,0.0434 -0.0403,0.0775 -0.031,0.031 -0.0837,0.031 h -0.493 l -0.13022,1.07281 h -0.43718 l 0.13332,-1.07281 h -1.76113 q -0.0589,0 -0.093,-0.031 -0.0341,-0.0341 -0.0403,-0.0837 l -0.0248,-0.25425 2.25412,-2.63239 h 0.47129 z m -0.22324,-1.69292 q 0.0155,-0.15193 0.0558,-0.32556 l -1.68982,2.01848 h 1.42317 z"
         id="path855" /><path
         d="m 142.60849,205.58292 z m 0.76585,-0.33177 q 0,0.0775 -0.031,0.14883 -0.031,0.0682 -0.0868,0.12092 -0.0527,0.0496 -0.12402,0.0806 -0.0682,0.031 -0.14573,0.031 -0.0775,0 -0.14572,-0.031 -0.0682,-0.031 -0.12093,-0.0806 -0.0496,-0.0527 -0.0806,-0.12092 -0.031,-0.0713 -0.031,-0.14883 0,-0.0806 0.031,-0.14882 0.031,-0.0713 0.0806,-0.12403 0.0527,-0.0527 0.12093,-0.0837 0.0682,-0.031 0.14572,-0.031 0.0775,0 0.14883,0.031 0.0713,0.031 0.12403,0.0837 0.0527,0.0527 0.0837,0.12403 0.031,0.0682 0.031,0.14882 z"
         id="path857" /><path
         d="m 144.21149,205.58292 z m 0.76585,-0.33177 q 0,0.0775 -0.031,0.14883 -0.031,0.0682 -0.0868,0.12092 -0.0527,0.0496 -0.12403,0.0806 -0.0682,0.031 -0.14573,0.031 -0.0775,0 -0.14572,-0.031 -0.0682,-0.031 -0.12093,-0.0806 -0.0496,-0.0527 -0.0806,-0.12092 -0.031,-0.0713 -0.031,-0.14883 0,-0.0806 0.031,-0.14882 0.031,-0.0713 0.0806,-0.12403 0.0527,-0.0527 0.12093,-0.0837 0.0682,-0.031 0.14572,-0.031 0.0775,0 0.14883,0.031 0.0713,0.031 0.12403,0.0837 0.0527,0.0527 0.0837,0.12403 0.031,0.0682 0.031,0.14882 z"
         id="path859" /><path
         d="m 145.8145,205.58292 z m 0.76584,-0.33177 q 0,0.0775 -0.031,0.14883 -0.031,0.0682 -0.0868,0.12092 -0.0527,0.0496 -0.12402,0.0806 -0.0682,0.031 -0.14573,0.031 -0.0775,0 -0.14573,-0.031 -0.0682,-0.031 -0.12092,-0.0806 -0.0496,-0.0527 -0.0806,-0.12092 -0.031,-0.0713 -0.031,-0.14883 0,-0.0806 0.031,-0.14882 0.031,-0.0713 0.0806,-0.12403 0.0527,-0.0527 0.12092,-0.0837 0.0682,-0.031 0.14573,-0.031 0.0775,0 0.14883,0.031 0.0713,0.031 0.12402,0.0837 0.0527,0.0527 0.0837,0.12403 0.031,0.0682 0.031,0.14882 z"
         id="path861" /></g></g></svg>
